<?xml version="1.0" encoding="utf-8"?>
<!-- Generator: Adobe Illustrator 16.0.0, SVG Export Plug-In . SVG Version: 6.00 Build 0)  -->
<!DOCTYPE svg PUBLIC "-//W3C//DTD SVG 1.1//EN" "http://www.w3.org/Graphics/SVG/1.1/DTD/svg11.dtd">
<svg version="1.1"
	 id="Layer_1" xmlns:rdf="http://www.w3.org/1999/02/22-rdf-syntax-ns#" xmlns:cc="http://creativecommons.org/ns#" xmlns:svg="http://www.w3.org/2000/svg" xmlns:inkscape="http://www.inkscape.org/namespaces/inkscape" xmlns:sodipodi="http://sodipodi.sourceforge.net/DTD/sodipodi-0.dtd" xmlns:dc="http://purl.org/dc/elements/1.1/" sodipodi:docname="AJAX.svg" inkscape:version="0.48.1 "
	 xmlns="http://www.w3.org/2000/svg" xmlns:xlink="http://www.w3.org/1999/xlink" x="0px" y="0px" width="250.333px" height="125px"
	 viewBox="17.466 -13.37 250.333 125" enable-background="new 17.466 -13.37 250.333 125" xml:space="preserve">
<sodipodi:namedview  bordercolor="#666666" inkscape:zoom="8.7486948" pagecolor="#ffffff" fit-margin-left="0" objecttolerance="10" showgrid="false" inkscape:cx="247.11667" inkscape:cy="40.949792" fit-margin-top="0" guidetolerance="10" gridtolerance="10" borderopacity="1" inkscape:current-layer="g3" inkscape:window-maximized="1" inkscape:window-y="-8" inkscape:window-x="-8" fit-margin-bottom="0" fit-margin-right="0" inkscape:pageopacity="0" inkscape:window-height="1004" inkscape:window-width="1280" inkscape:pageshadow="2" id="namedview198">
	</sodipodi:namedview>
<g id="g3" transform="translate(-0.66700113,-0.869)">
	<g id="g41">
		<path id="path43" inkscape:connector-curvature="0" fill="#00529B" d="M27.678,64.007l-1.942-0.85l8.057-0.982
			c0.144,0.232,0.283,0.439,0.446,0.654L27.678,64.007L27.678,64.007z M49.304,64.007l1.946-0.902l-8.013-0.955
			c-0.07,0.258-0.283,0.465-0.427,0.68L49.304,64.007L49.304,64.007z M48.137,64.14l-2.442,0.818l-3.47-1.053l-0.301-0.094
			c0.116-0.09,0.211-0.184,0.301-0.305c0.146-0.115,0.264-0.283,0.399-0.402L48.137,64.14L48.137,64.14z M54.578,61.868
			l-2.229,1.033l-8.901-1.033c0.072-0.207,0.143-0.42,0.209-0.637L54.578,61.868L54.578,61.868z M55.373,61.56l2.907-1.846H42.536
			c0,0.658-0.096,1.223-0.312,1.709c-0.604,1.568-2.125,2.32-3.649,2.299c-1.497-0.045-3.023-0.82-3.702-2.252
			c-0.236-0.52-0.376-1.072-0.376-1.756H18.703l2.882,1.846l12.067-0.625c0.233,0.861,0.661,1.613,1.221,2.168
			c0.963,1.016,2.341,1.572,3.702,1.572c1.336,0.027,2.692-0.463,3.649-1.543c0.52-0.561,0.917-1.287,1.153-2.16L55.373,61.56
			L55.373,61.56z M42.225,66.343l0.312,0.564l-0.312,0.143l-0.815,0.377l-0.937-1.855c-0.587,0.205-1.237,0.324-1.897,0.35
			c-0.704,0.023-1.434-0.074-2.065-0.281l-0.792,1.787c-0.261,0.02-0.612,0-0.845-0.168c-0.119-0.074-0.236-0.188-0.284-0.352
			l0.284-0.471l0.679-1.217c-0.213-0.145-0.398-0.236-0.589-0.424l0.563-0.678c0.966,0.586,2.017,0.91,3.05,0.91
			c1.032,0.025,2.059-0.305,3.02-0.982l0.629,0.188l0.264,0.096c-0.094,0.068-0.166,0.135-0.264,0.209
			c-0.184,0.186-0.348,0.373-0.647,0.537L42.225,66.343L42.225,66.343z M42.225,56.757c0.61,0.725,1.061,1.619,1.295,2.65h-1.006
			c-0.073-0.305-0.166-0.609-0.289-0.891c-0.672-1.781-2.058-3.045-3.649-4.1c-0.212-0.121-0.4-0.258-0.61-0.375
			c0.21,0.07,0.398,0.139,0.61,0.211C40.026,54.837,41.314,55.636,42.225,56.757L42.225,56.757z M39.508,63.368
			c0.264-0.047,0.659-0.189,0.965-0.424l-1.598-3.162l1.665-0.795l-1.402-1.217l-0.562,0.256l-2.416,1.098l0.71,1.594l1.143-0.512
			L39.508,63.368L39.508,63.368z M35.154,63.812c-0.095-0.068-0.19-0.162-0.28-0.234c-0.187-0.162-0.354-0.328-0.465-0.492
			L28.9,64.124l2.345,0.787L35.154,63.812L35.154,63.812z M33.653,61.868c-0.093-0.207-0.16-0.42-0.232-0.637l-11.015,0.637
			l2.228,1.076L33.653,61.868L33.653,61.868z"/>
		<g id="g45">
			<g id="g47">
				<path id="path49" inkscape:connector-curvature="0" fill="#F47920" d="M102.853,79.929c3.632,0.574,10.59,1.471,19.112,1.656
					c8.506,0.215,18.505-0.283,27.953-1.693c9.449-1.371,18.304-3.674,24.593-6.158c6.338-2.387,9.879-5.297,9.864-5.309
					c0.036,0.016-3.659,3.381-10.371,6.27c-6.644,3-16.023,5.875-25.902,7.732c-9.866,1.91-20.215,2.781-28.634,2.832
					c-8.417,0.1-14.956-0.66-17.248-1.02c-7.917-1.18-13.671-3.262-17.183-5.268c-3.544-2.02-4.724-3.846-4.355-4.203
					c0.392-0.42,2.158,0.434,5.732,1.537C89.991,77.429,95.437,78.825,102.853,79.929L102.853,79.929z"/>
			</g>
		</g>
		<g id="g51">
			<path id="path53" inkscape:connector-curvature="0" d="M254.139,20.104l-1.349,0.172l-0.865,0.082
				c-1.623,0.141-4.071,0.349-6.231,1.726c-2.143,1.368-4.599,4.224-6.313,6.422c-18.61,3.117-28.813,14.142-35.564,21.447
				l-4.232,4.939l0.71-0.221c12.681-11.701,23.991-17.959,34.581-19.129l0.158-0.018l1.409-1.841l2.969-3.892
				c1.221-1.099,2.909-1.487,5.395-1.771l4.337-0.278l5.136-0.36c2.932-0.392,5.452-1.068,8.909-5.818l4.709-6.356l-0.553-0.479
				C263.025,19.01,258.304,19.591,254.139,20.104z M254.228,20.83c3.61-0.443,7.612-1.084,11.477-3.895
				c-1.395,1.883-3.109,4.198-3.109,4.198c-3.294,4.524-5.564,5.143-8.415,5.523c0,0.003-5.069,0.354-5.069,0.354l-4.387,0.283
				c-1.855,0.21-3.203,0.604-4.389,1.194c1.65-2.077,3.84-4.564,5.757-5.786c2.004-1.282,4.345-1.48,5.895-1.613l0.901-0.09
				C252.888,20.999,254.228,20.83,254.228,20.83z M238.807,29.384c-0.334,0.43-2.945,3.854-2.945,3.854s-1.073,1.402-1.23,1.606
				c-9.048,1.042-18.599,5.752-29.03,14.27C212.192,42.035,221.962,32.432,238.807,29.384z M252.888,20.999L252.888,20.999h0.005
				H252.888z"/>
			
				<linearGradient id="path66_1_" gradientUnits="userSpaceOnUse" x1="-2884.7576" y1="3562.1191" x2="-2814.2063" y2="3496.3291" gradientTransform="matrix(0.246 0 0 -0.246 916.993 916.174)">
				<stop  offset="0.0056" style="stop-color:#C4161C"/>
				<stop  offset="0.3" style="stop-color:#C93627"/>
				<stop  offset="0.5" style="stop-color:#EBB39E"/>
				<stop  offset="0.7191" style="stop-color:#C93627"/>
				<stop  offset="1" style="stop-color:#C4161C"/>
			</linearGradient>
			<path id="path66" inkscape:connector-curvature="0" fill="url(#path66_1_)" d="M200.053,54.417
				c13.457-9.836,20.693-13.74,36.68-13.883l-3.444,4.645c-0.648,1.379-1.654,1.314-2.713,1.252
				c-11.429-0.092-19.411,0.762-33.295,10.842L200.053,54.417L200.053,54.417z"/>
			
				<linearGradient id="path77_1_" gradientUnits="userSpaceOnUse" x1="-2884.0237" y1="3590.2539" x2="-2765.5793" y2="3507.3184" gradientTransform="matrix(0.246 0 0 -0.246 916.993 916.174)">
				<stop  offset="0" style="stop-color:#FFFFFF"/>
				<stop  offset="0.3427" style="stop-color:#FFFFFF"/>
				<stop  offset="0.55" style="stop-color:#FFFFFF"/>
				<stop  offset="0.9101" style="stop-color:#C2CAE3"/>
			</linearGradient>
			<path id="path77" inkscape:connector-curvature="0" fill="url(#path77_1_)" d="M200.043,54.401
				c13.544-12.495,24.852-18.123,34.792-19.222c0.881-1.166,3.918-5.066,4.836-6.365C217.009,32.515,206.991,47.853,200.043,54.401z
				"/>
			
				<linearGradient id="path92_1_" gradientUnits="userSpaceOnUse" x1="-2865.0203" y1="3558.9756" x2="-2822.4744" y2="3519.3008" gradientTransform="matrix(0.246 0 0 -0.246 916.993 916.174)">
				<stop  offset="0.1067" style="stop-color:#00529B"/>
				<stop  offset="0.5" style="stop-color:#778EC1"/>
				<stop  offset="0.5196" style="stop-color:#728ABF"/>
				<stop  offset="0.7283" style="stop-color:#3C69AA"/>
				<stop  offset="0.8811" style="stop-color:#00589F"/>
				<stop  offset="0.9607" style="stop-color:#00529B"/>
			</linearGradient>
			<path id="path92" inkscape:connector-curvature="0" fill="url(#path92_1_)" d="M200.74,53.687
				c-0.269,0.256-1.203,1.266-1.472,1.506c7.947-5.861,14.603-11.961,31.18-14.216c0.825-0.936,3.237-4.108,4.374-5.798
				C219.71,37.233,209.826,45.671,200.74,53.687L200.74,53.687z"/>
			
				<linearGradient id="path101_1_" gradientUnits="userSpaceOnUse" x1="-2792.158" y1="3562.0938" x2="-2766.9578" y2="3546.3469" gradientTransform="matrix(0.246 0 0 -0.246 916.993 916.174)">
				<stop  offset="0.0056" style="stop-color:#C4161C"/>
				<stop  offset="0.4944" style="stop-color:#C93627"/>
				<stop  offset="1" style="stop-color:#EBB39E"/>
			</linearGradient>
			<path id="path101" inkscape:connector-curvature="0" fill="url(#path101_1_)" d="M232.988,45.714
				c0.146-0.512,0.503-0.893-1.178-1.883c-1.976-1.164-2.659-0.676-2.223-1.859c0.324-0.898,4.571-2.688,7.67-1.638
				C237.257,40.335,234.508,43.521,232.988,45.714z"/>
			
				<linearGradient id="path120_1_" gradientUnits="userSpaceOnUse" x1="-93.7454" y1="585.8341" x2="-75.2213" y2="571.8753" gradientTransform="matrix(0.9841 0.0195 0.0195 -0.9841 320.4279 599.7428)">
				<stop  offset="0.073" style="stop-color:#C2CAE3"/>
				<stop  offset="0.5" style="stop-color:#00529B"/>
				<stop  offset="0.545" style="stop-color:#00559E"/>
				<stop  offset="0.6155" style="stop-color:#1F5FA4"/>
				<stop  offset="0.7025" style="stop-color:#486FAE"/>
				<stop  offset="0.8028" style="stop-color:#738BBF"/>
				<stop  offset="0.9129" style="stop-color:#ABB7D9"/>
				<stop  offset="0.9494" style="stop-color:#C2CAE3"/>
			</linearGradient>
			<path id="path120" inkscape:connector-curvature="0" fill="url(#path120_1_)" d="M244.891,27.352
				c-3.098,0.415-5.053,1.187-6.296,2.753l-4.329,5.797c0.944-0.844,3.798-1.259,6.889-1.338l0.435,0.007
				c0.127-0.007,0.26,0,0.393-0.007c0.436-0.011,0.897-0.033,1.38-0.044c4.385-0.171,10.472-0.79,14.023-4.931l5.325-7.363
				l0.637-0.877C258.722,27.442,248.171,26.915,244.891,27.352L244.891,27.352z"/>
			
				<linearGradient id="path133_1_" gradientUnits="userSpaceOnUse" x1="-98.6824" y1="578.4064" x2="-81.1259" y2="565.1766" gradientTransform="matrix(0.9841 0.0195 0.0195 -0.9841 320.4279 599.7428)">
				<stop  offset="0.0562" style="stop-color:#EBB39E"/>
				<stop  offset="0.3278" style="stop-color:#C93627"/>
				<stop  offset="0.5169" style="stop-color:#C4161C"/>
				<stop  offset="0.7472" style="stop-color:#C93627"/>
				<stop  offset="0.9607" style="stop-color:#EBB39E"/>
			</linearGradient>
			<path id="path133" inkscape:connector-curvature="0" fill="url(#path133_1_)" d="M247.463,33.794
				c-3.326,0.466-7.128,0.604-8.22,0.659c-1.861,0.082-4.34,0.678-5.022,1.507c-2.09,2.596-4.091,5.016-4.632,6.012
				c1.275-1.178,5.475-1.05,10.568-1.285c5.089-0.232,10.246-2.432,14.312-7.068l3.091-4.27
				C255.491,32.003,251.847,33.182,247.463,33.794z"/>
			
				<linearGradient id="path146_1_" gradientUnits="userSpaceOnUse" x1="-89.2595" y1="592.0841" x2="-70.4329" y2="577.8972" gradientTransform="matrix(0.9841 0.0195 0.0195 -0.9841 320.4279 599.7428)">
				<stop  offset="0" style="stop-color:#FFFFFF"/>
				<stop  offset="0.3" style="stop-color:#FFFFFF"/>
				<stop  offset="0.5056" style="stop-color:#D4D9EC"/>
				<stop  offset="0.7" style="stop-color:#FFFFFF"/>
				<stop  offset="1" style="stop-color:#FFFFFF"/>
			</linearGradient>
			<path id="path146" inkscape:connector-curvature="0" fill="url(#path146_1_)" d="M252.838,20.637
				c-1.353,0.183-4.407,0.133-6.945,1.756c-2.545,1.623-5.608,5.472-7.114,7.498c1.399-1.497,3.259-1.923,5.985-2.232
				c2.726-0.314,6.664-0.261,9.464-0.638c2.69-0.358,5.191-0.898,8.662-5.67l4.711-6.358
				C262.718,19.828,257.385,20.029,252.838,20.637L252.838,20.637z"/>
		</g>
		<g id="g148">
			<polygon id="polygon150" fill="#00529B" points="52.818,44.165 52.818,39.302 61.98,39.302 61.98,36.748 52.818,36.748 
				52.818,32.32 62.476,32.32 62.476,29.764 46.026,29.764 46.026,46.749 63.01,46.749 63.01,46.749 63.01,44.165 			"/>
			<path id="path152" inkscape:connector-curvature="0" fill="#00529B" d="M72.945,46.749V32.32h3.99
				c1.216,0,2.338,0.091,3.362,0.775c0.745,0.531,1.214,1.286,1.214,2.221c0,0.781-0.278,1.585-1.307,2.238
				c-1.34,0.873-3.675,0.992-5.139,0.815l-0.841-0.1l6.763,8.479h7.848l-6.419-7.077c1.15-0.126,2.994-0.583,4.112-1.302
				c1.339-0.908,2.024-2.247,2.024-3.496c0-1.4-0.752-2.922-2.459-3.924c-2.029-1.15-4.798-1.185-7.353-1.185H66.124v16.983H72.945
				L72.945,46.749z"/>
			<polygon id="polygon154" fill="#00529B" points="127.779,37.025 127.779,32.32 137.688,32.32 137.688,29.764 120.992,29.764 
				120.992,46.749 127.779,46.749 127.779,46.749 127.779,39.581 136.938,39.581 136.938,37.025 			"/>
			<polygon id="polygon156" fill="#00529B" points="140.149,29.764 140.149,46.749 156.977,46.749 156.977,44.165 146.973,44.165 
				146.973,29.764 146.973,29.764 			"/>
			<polygon id="polygon158" fill="#00529B" points="206.48,29.764 185.017,29.764 185.017,32.32 185.017,32.32 192.337,32.32 
				192.337,46.749 199.163,46.749 199.163,32.32 206.48,32.32 			"/>
			<path id="path160" inkscape:connector-curvature="0" fill="#00529B" d="M170.559,29.271c-3.177,0-7.631,0.718-10.623,2.861
				c-2.373,1.683-3.488,4.088-3.488,6.138c0,2.028,1.115,4.43,3.488,6.112c2.992,2.113,7.446,2.832,10.623,2.832
				s7.664-0.719,10.653-2.832c2.37-1.682,3.464-4.083,3.464-6.112c0-2.05-1.094-4.456-3.464-6.138
				C178.223,29.989,173.736,29.301,170.559,29.271L170.559,29.271z M170.559,45.159c-1.683,0-3.677-0.375-5.146-2.215
				c-1.213-1.494-1.43-3.21-1.43-4.675c0-1.523,0.217-3.208,1.43-4.702c1.469-1.875,3.463-2.245,5.146-2.245
				c1.711,0,3.68,0.37,5.166,2.245c1.221,1.494,1.44,3.179,1.44,4.702c0,1.465-0.22,3.181-1.44,4.675
				C174.239,44.786,172.27,45.159,170.559,45.159L170.559,45.159z"/>
			<path id="path162" inkscape:connector-curvature="0" fill="#00529B" d="M104.524,29.271c-3.176,0-7.63,0.718-10.619,2.861
				c-2.373,1.683-3.495,4.088-3.495,6.138c0,2.028,1.122,4.43,3.495,6.112c2.989,2.113,7.444,2.832,10.619,2.832
				s7.664-0.719,10.657-2.832c2.364-1.682,3.458-4.083,3.458-6.112c0-2.05-1.094-4.456-3.458-6.138
				C112.188,29.989,107.698,29.301,104.524,29.271L104.524,29.271z M104.524,45.159c-1.683,0-3.679-0.375-5.14-2.215
				c-1.215-1.494-1.436-3.21-1.436-4.675c0-1.523,0.221-3.208,1.436-4.702c1.461-1.875,3.457-2.245,5.14-2.245
				c1.71,0,3.677,0.37,5.17,2.245c1.217,1.494,1.435,3.179,1.435,4.702c0,1.465-0.218,3.181-1.435,4.675
				C108.2,44.786,106.234,45.159,104.524,45.159L104.524,45.159z"/>
			<path id="path164" inkscape:connector-curvature="0" fill="#00529B" d="M22.098,46.749l2.681-4.931h9.444l2.894,4.931h7.632
				l-10.34-16.985h-6.327l-9.378,16.985H22.098L22.098,46.749z M26.024,39.517l3.212-5.917h0.094l3.487,5.917H26.024L26.024,39.517z
				"/>
		</g>
		<g id="g166">
			<path id="path168" inkscape:connector-curvature="0" fill="#00529B" d="M90.175,60.359l-1.512,5.576
				c-0.187,0.225-0.478,0.412-0.741,0.551c-0.406,0.221-0.811,0.338-1.183,0.338c-0.37,0-0.699-0.148-0.85-0.375
				c-0.11-0.188-0.219-0.479-0.073-0.998l1.368-5.092H85.78l-1.325,4.908c-0.111,0.445-0.297,1.219,0.106,1.811
				c0.225,0.332,0.708,0.703,1.698,0.703c0.409,0,0.816-0.07,1.337-0.295c0.329-0.191,0.694-0.408,0.994-0.631l-0.219,0.777h1.251
				l1.966-7.273H90.175L90.175,60.359z"/>
			<path id="path170" inkscape:connector-curvature="0" fill="#00529B" d="M99.167,61.198c-0.335-0.441-0.744-0.66-0.817-0.699
				c-0.471-0.252-0.993-0.297-1.442-0.297c-0.479,0-1.071,0.045-1.731,0.445c-0.482,0.336-1.072,0.85-1.289,1.703
				c-0.197,0.625-0.117,1.104,0.106,1.4c0.256,0.336,0.7,0.514,1.075,0.627l0.698,0.227c0.365,0.074,0.738,0.074,0.956,0.363
				c0.112,0.15,0.23,0.338,0.152,0.705c-0.113,0.33-0.33,0.551-0.519,0.699c-0.256,0.225-0.703,0.414-1.329,0.414
				c-0.404,0-0.738-0.082-1.069-0.268c-0.294-0.219-0.519-0.404-0.631-0.584L92.4,66.786c0.668,0.875,1.486,0.994,2.294,0.994
				c0.55,0,1.663-0.072,2.589-0.775c0.512-0.441,0.887-1.002,1.037-1.48c0.072-0.375,0.146-0.92-0.036-1.26
				c-0.263-0.514-0.854-0.734-1.187-0.811l-0.519-0.15c-0.659-0.15-0.957-0.221-1.107-0.406c-0.144-0.105-0.26-0.328-0.144-0.773
				c0.066-0.182,0.223-0.482,0.511-0.703c0.369-0.223,0.709-0.258,0.966-0.258c0.33,0,0.625,0.078,0.887,0.258
				c0.223,0.146,0.403,0.336,0.553,0.521L99.167,61.198L99.167,61.198z"/>
			<path id="path172" inkscape:connector-curvature="0" fill="#00529B" d="M106.744,61.198c-0.299-0.441-0.703-0.66-0.812-0.699
				c-0.44-0.252-0.965-0.297-1.403-0.297c-0.509,0-1.071,0.045-1.736,0.445c-0.481,0.336-1.073,0.85-1.331,1.703
				c-0.141,0.625-0.073,1.104,0.149,1.4c0.258,0.336,0.743,0.514,1.069,0.627l0.665,0.227c0.369,0.074,0.743,0.074,0.999,0.363
				c0.11,0.15,0.221,0.338,0.11,0.705c-0.11,0.33-0.329,0.551-0.482,0.699c-0.259,0.225-0.698,0.414-1.329,0.414
				c-0.405,0-0.735-0.082-1.105-0.268c-0.299-0.219-0.483-0.404-0.631-0.584l-0.923,0.852c0.71,0.875,1.519,0.994,2.327,0.994
				c0.559,0,1.661-0.072,2.589-0.775c0.518-0.441,0.887-1.002,0.998-1.48c0.11-0.375,0.145-0.92-0.038-1.26
				c-0.221-0.514-0.814-0.734-1.179-0.811l-0.521-0.15c-0.632-0.15-0.918-0.221-1.073-0.406c-0.144-0.105-0.254-0.328-0.144-0.773
				c0.074-0.182,0.184-0.482,0.517-0.703c0.335-0.223,0.7-0.258,0.921-0.258c0.374,0,0.666,0.078,0.928,0.258
				c0.224,0.146,0.404,0.336,0.553,0.521L106.744,61.198L106.744,61.198z"/>
			<path id="path174" inkscape:connector-curvature="0" fill="#00529B" d="M109.453,60.359l-0.263,0.955h0.851l-1.692,6.318h1.398
				l1.957-7.273H109.453L109.453,60.359z M110.342,57.956c-0.119,0.514,0.185,0.918,0.668,0.918c0.515,0,0.991-0.406,1.14-0.918
				c0.144-0.486-0.148-0.889-0.667-0.889C111.01,57.068,110.491,57.47,110.342,57.956L110.342,57.956z"/>
			<path id="path176" inkscape:connector-curvature="0" fill="#00529B" d="M123.177,67.632l1.555-5.727
				c0.488-0.408,1.225-0.742,1.887-0.742c0.481,0,0.745,0.186,0.85,0.406c0.224,0.336,0.113,0.885,0.035,1.109l-1.328,4.953h1.406
				l1.328-4.84c0.151-0.596,0.22-1.295-0.11-1.885c-0.298-0.479-0.848-0.705-1.626-0.705c-0.477,0-1.289,0.113-2.182,0.705
				l0.151-0.549h-2.259l-0.255,0.955h0.849l-1.697,6.316h1.396V67.632z"/>
			<path id="path178" inkscape:connector-curvature="0" fill="#00529B" d="M76.964,57.142l-2.842,10.49h1.585l1.228-4.613h1.063
				l1.482,4.613h0.111h1.805l-1.698-4.693c0.779-0.08,1.815-0.443,2.439-0.926c0.697-0.516,1.223-1.256,1.398-2.031
				c0.225-0.742,0.121-1.514-0.32-2.025c-0.596-0.742-1.778-0.814-2.629-0.814h-0.995H76.964L76.964,57.142L76.964,57.142z
				 M79.592,61.825c-0.111,0-0.187,0-0.261,0h-2.067l0.927-3.469h1.401h0.706c0.223,0,0.918,0,1.291,0.371
				c0.218,0.223,0.405,0.592,0.252,1.182c-0.146,0.555-0.444,0.998-0.883,1.369C80.479,61.642,79.958,61.794,79.592,61.825
				L79.592,61.825z"/>
			<path id="path180" inkscape:connector-curvature="0" fill="#00529B" d="M116.339,63.382c-1.476,0.15-2.698,0.738-3.102,2.258
				c-0.039,0.178-0.077,0.33-0.077,0.477v0.258c0.038,0.814,0.591,1.408,1.81,1.408c0.441,0,0.886-0.072,1.369-0.268
				c0.041,0,0.076-0.027,0.145-0.066c0.483-0.223,0.846-0.594,0.963-0.701h0.072l-0.252,0.887h1.255l1.291-4.693
				c0.188-0.742,0.367-1.48-0.041-2.033c-0.334-0.518-1.18-0.705-1.84-0.705c-0.634,0-1.188,0.08-1.594,0.188
				c-1.288,0.328-1.773,1.107-1.812,1.809l1.298,0.074c0.104-0.367,0.257-0.629,0.514-0.812c0.298-0.217,0.741-0.295,1.295-0.295
				c0.299,0,0.663,0.035,0.81,0.295c0.228,0.262,0.149,0.629,0.078,0.965l-0.261,0.92h-1.035
				C116.927,63.345,116.601,63.345,116.339,63.382L116.339,63.382z M116.339,66.704c-0.223,0.084-0.443,0.119-0.668,0.119
				c-0.288,0-0.661-0.035-0.881-0.34c-0.184-0.26-0.226-0.516-0.111-0.887c0.072-0.291,0.219-0.59,0.586-0.883
				c0.223-0.148,0.52-0.336,1.074-0.404c0.183-0.045,0.405-0.078,0.67-0.078h1.033l-0.407,1.549
				c-0.225,0.299-0.444,0.48-0.707,0.666C116.71,66.566,116.522,66.673,116.339,66.704L116.339,66.704z"/>
			<path id="path182" inkscape:connector-curvature="0" fill="#00529B" d="M150.082,60.359l-0.255,0.955h0.851l-1.704,6.318h1.404
				l1.956-7.273H150.082L150.082,60.359L150.082,60.359z M151.382,57.956c-0.114,0.514,0.181,0.918,0.667,0.918
				c0.475,0,0.993-0.406,1.139-0.918c0.151-0.486-0.146-0.889-0.664-0.889C152.049,57.068,151.521,57.47,151.382,57.956
				L151.382,57.956z"/>
			<path id="path184" inkscape:connector-curvature="0" fill="#00529B" d="M155.443,60.359l-1.956,7.273h1.406l1.108-4.178
				c0.183-0.479,0.365-0.959,0.627-1.33c0.442-0.701,0.956-0.811,1.256-0.811c0.186,0,0.402,0.033,0.554,0.184
				c0.104,0.115,0.147,0.328,0.147,0.592l1.258-0.371c0.251-0.734,0-1.146-0.441-1.359c-0.23-0.113-0.485-0.156-0.743-0.156
				c-0.815,0-1.621,0.445-2.181,1.219l0.294-1.062H155.443L155.443,60.359L155.443,60.359z"/>
			<path id="path186" inkscape:connector-curvature="0" fill="#00529B" d="M163.208,56.991l-2.324,8.648
				c-0.181,0.66-0.519,1.992,1.15,1.992h0.809l0.257-0.959h-0.402c-0.7,0-0.52-0.594-0.486-0.738l2.405-8.943H163.208
				L163.208,56.991z"/>
			<path id="path188" inkscape:connector-curvature="0" fill="#00529B" d="M167.008,60.359l-0.247,0.955h0.851l-1.743,6.318h1.441
				l1.96-7.273H167.008L167.008,60.359z M168.304,57.956c-0.113,0.514,0.185,0.918,0.666,0.918c0.52,0,0.999-0.406,1.146-0.918
				c0.111-0.486-0.188-0.889-0.663-0.889C168.933,57.068,168.456,57.47,168.304,57.956L168.304,57.956z"/>
			<path id="path190" inkscape:connector-curvature="0" fill="#00529B" d="M172.171,67.632l1.514-5.727
				c0.517-0.408,1.259-0.742,1.918-0.742c0.482,0,0.744,0.186,0.853,0.406c0.258,0.336,0.075,0.885,0.038,1.109l-1.327,4.953h1.398
				l1.331-4.84c0.148-0.596,0.224-1.295-0.111-1.885c-0.29-0.479-0.85-0.705-1.621-0.705c-0.521,0-1.259,0.113-2.18,0.705
				l0.146-0.549h-2.253l-0.26,0.955h0.847l-1.695,6.318H172.171L172.171,67.632z"/>
			<path id="path192" inkscape:connector-curvature="0" fill="#00529B" d="M193.863,61.198c-0.293-0.441-0.662-0.66-0.779-0.699
				c-0.479-0.252-0.951-0.297-1.398-0.297c-0.525,0-1.074,0.045-1.735,0.445c-0.518,0.336-1.109,0.85-1.331,1.703
				c-0.193,0.625-0.074,1.104,0.142,1.4c0.227,0.336,0.706,0.514,1.04,0.627l0.701,0.227c0.365,0.074,0.742,0.074,0.953,0.363
				c0.156,0.15,0.23,0.338,0.156,0.705c-0.107,0.33-0.329,0.551-0.52,0.699c-0.225,0.225-0.666,0.414-1.328,0.414
				c-0.416,0-0.707-0.082-1.077-0.268c-0.293-0.219-0.509-0.404-0.623-0.584l-0.925,0.852c0.663,0.875,1.48,0.994,2.293,0.994
				c0.591,0,1.66-0.072,2.584-0.775c0.521-0.441,0.882-1.002,1.036-1.48c0.11-0.375,0.149-0.92-0.029-1.26
				c-0.229-0.514-0.861-0.734-1.187-0.811l-0.522-0.15c-0.62-0.15-0.922-0.221-1.105-0.406c-0.114-0.105-0.258-0.328-0.147-0.773
				c0.073-0.182,0.178-0.482,0.518-0.703c0.366-0.223,0.735-0.258,0.96-0.258c0.368,0,0.623,0.078,0.918,0.258
				c0.19,0.146,0.369,0.336,0.519,0.521L193.863,61.198L193.863,61.198z"/>
			<path id="path194" inkscape:connector-curvature="0" fill="#00529B" d="M137.615,67.632h1.59l1.591-2.553h4.021l0.188,2.553
				h1.811l-0.995-10.49h-1.294L137.615,67.632L137.615,67.632L137.615,67.632z M141.533,63.864l2.842-4.469h0.035l0.34,4.469
				H141.533L141.533,63.864z"/>
			<path id="path196" inkscape:connector-curvature="0" fill="#00529B" d="M181.494,64.31h4.389L186,63.827
				c0.292-0.969,0.585-1.961,0.075-2.771c-0.445-0.697-1.331-0.854-1.964-0.854c-0.936,0-1.833,0.336-2.546,0.961
				c-0.966,0.85-1.363,1.992-1.587,2.957c-0.221,0.777-0.447,1.957,0.145,2.809c0.552,0.732,1.557,0.852,2.254,0.852
				c0.565,0,1.089-0.082,1.631-0.268c0.292-0.105,0.66-0.254,0.989-0.438l-0.215-0.854c-0.339,0.15-0.594,0.262-0.965,0.342
				c-0.345,0.062-0.67,0.139-1.036,0.139c-0.552,0-1.034-0.186-1.287-0.512c-0.412-0.48-0.223-1.227-0.11-1.588L181.494,64.31
				L181.494,64.31L181.494,64.31z M181.712,63.345l0.074-0.326c0.153-0.377,0.335-0.967,0.808-1.377
				c0.312-0.303,0.792-0.479,1.225-0.479c0.373,0,0.735,0.113,0.926,0.334c0.327,0.445,0.179,1.072,0.039,1.553l-0.079,0.295
				H181.712L181.712,63.345z"/>
		</g>
	</g>
</g>
</svg>
