<?xml version="1.0" encoding="utf-8"?>
<!-- Generator: Adobe Illustrator 20.1.0, SVG Export Plug-In . SVG Version: 6.00 Build 0)  -->
<svg version="1.1"
	 id="svg3112" xmlns:cc="http://creativecommons.org/ns#" xmlns:dc="http://purl.org/dc/elements/1.1/" xmlns:rdf="http://www.w3.org/1999/02/22-rdf-syntax-ns#" xmlns:svg="http://www.w3.org/2000/svg"
	 xmlns="http://www.w3.org/2000/svg" xmlns:xlink="http://www.w3.org/1999/xlink" x="0px" y="0px" viewBox="0 0 248.1 125.8"
	 style="enable-background:new 0 0 248.1 125.8;" xml:space="preserve">
<style type="text/css">
	.st0{fill:#EE2D27;}
</style>
<g id="layer1" transform="translate(-93.702257,-409.81391)">
	<path id="path38" class="st0" d="M335.2,474.8c-1.5,0-2.7,0.3-3.8,0.9c-1,0.5-1.8,1.2-2.6,2.1h-0.1c-0.8-1.8-2.8-3-5.4-3
		c-3.4,0-5.1,1.6-6,2.8h-0.1l-0.2-2.4h-5.2c0.1,1.6,0.2,3.4,0.2,5.6v11.9h6v-10.1c0-0.5,0-1,0.2-1.4c0.4-0.9,1.3-1.9,2.9-1.9
		c2,0,2.9,1.5,2.9,3.7v9.7h6v-10.2c0-0.4,0.1-1,0.2-1.4c0.4-1,1.4-1.9,2.9-1.9c2,0,2.9,1.5,2.9,4v9.4h6v-10.3
		C341.9,477.2,339,474.8,335.2,474.8 M297.5,489.1L297.5,489.1c-2.6,0-4.1-2.2-4.1-5.2c0-2.6,1.1-5.2,4.1-5.2c2.8,0,3.9,2.6,3.9,5.2
		C301.4,487,299.9,489.1,297.5,489.1 M297.7,474.8c-6.4,0-10.6,3.6-10.6,9.2c0,5.6,4.5,9,10.2,9h0c5.3,0,10.4-2.9,10.4-9.2
		C307.8,478.5,303.7,474.8,297.7,474.8 M280.6,479c1.6,0,2.7,0.3,3.4,0.5l1-4c-1.3-0.4-3.1-0.7-4.7-0.7c-7.4,0-11.3,4.2-11.3,9.2
		c0,5.5,4.1,8.9,10.5,8.9c2.3,0,4.4-0.3,5.5-0.8l-0.7-4c-0.9,0.4-2.1,0.6-3.5,0.6c-3,0-5.4-1.7-5.4-4.9
		C275.3,481,277.4,479,280.6,479 M262.5,486.4c-2.2,0-3.6,1.4-3.6,3.3c0,1.9,1.5,3.3,3.6,3.3h0c2.2,0,3.6-1.4,3.6-3.3
		C266.1,487.7,264.6,486.4,262.5,486.4 M248.2,486.3c0,0.3,0,0.6-0.1,0.9c-0.4,1.1-1.7,2-3.2,2c-1.4,0-2.4-0.7-2.4-2.1
		c0-2.1,2.5-2.7,5.8-2.7V486.3L248.2,486.3z M254.2,482.3c0-4.1-2.1-7.5-8.7-7.5c-3.6,0-6.3,0.9-7.7,1.6l1.1,3.5
		c1.3-0.7,3.4-1.3,5.5-1.3c3,0,3.6,1.3,3.6,2.2v0.2c-7,0-11.6,2.1-11.6,6.7c0,2.8,2.4,5.3,6.4,5.3c2.3,0,4.4-0.7,5.7-2.1h0.1
		l0.4,1.7h5.5c-0.2-1-0.3-2.6-0.3-4.2L254.2,482.3L254.2,482.3z M116.6,492.6h6.2v-16.3h-6.2V492.6z M119.7,468.3
		c-2.1,0-3.5,1.2-3.5,2.9c0,1.6,1.3,2.9,3.4,2.9h0c2.1,0,3.5-1.3,3.5-2.9C123.1,469.5,121.8,468.3,119.7,468.3 M226.3,492.6h6.1
		v-16.7h-6.1V492.6z M229.4,467.8c-2.1,0-3.5,1.2-3.5,2.9c0,1.6,1.3,2.9,3.4,2.9h0c2.1,0,3.5-1.3,3.5-2.9
		C232.8,469.1,231.5,467.8,229.4,467.8 M211.7,488.7c-1.8,0-3.2-1.1-3.6-2.6c-0.1-0.3-0.1-0.6-0.1-1v-2.6c0-0.4,0-0.7,0.1-1
		c0.4-1.6,1.9-2.7,3.6-2.7c2.9,0,4.3,2.1,4.3,4.8C215.9,486.9,214.3,488.7,211.7,488.7 M214,474.8c-2.8,0-4.8,1-6,2.5H208v-9.4h-6.1
		v19.5c0,2-0.1,4.1-0.2,5.2h5.2l0.2-2.4h0.1c1.4,2.1,3.6,2.8,6,2.8c4.5,0,9-3.1,9-9.4C222.2,478.3,218.8,474.8,214,474.8
		 M190.7,486.3c0,0.3,0,0.6-0.1,0.9c-0.4,1.1-1.7,2-3.2,2c-1.4,0-2.4-0.7-2.4-2.1c0-2.1,2.5-2.7,5.7-2.7V486.3z M196.6,482.3
		c0-4.1-2.1-7.5-8.7-7.5c-3.6,0-6.3,0.9-7.7,1.6l1.1,3.5c1.3-0.7,3.4-1.3,5.5-1.3c3,0,3.6,1.3,3.6,2.2v0.2c-7,0-11.6,2.1-11.6,6.7
		c0,2.8,2.4,5.3,6.4,5.3c2.3,0,4.4-0.7,5.7-2.1h0.1l0.4,1.7h5.6c-0.2-1-0.3-2.6-0.3-4.2L196.6,482.3L196.6,482.3z M170.5,478.4h-0.2
		l-0.2-3.2h-5.3c0.1,1.5,0.2,3.2,0.2,5.7l0,11.7h6.2v-8.8c0-0.5,0-0.8,0.1-1.2c0.4-1.7,1.9-2.7,4.2-2.7c0.7,0,1.2,0.1,1.7,0.1v-5.1
		c-0.4-0.1-0.7-0.1-1.3-0.1C173.9,474.8,171.5,475.9,170.5,478.4 M153.8,486.3c0,0.3,0,0.6-0.1,0.9c-0.4,1.1-1.7,2-3.2,2
		c-1.4,0-2.4-0.7-2.4-2.1c0-2.1,2.5-2.7,5.8-2.7V486.3z M159.7,482.3c0-4.1-2.1-7.5-8.7-7.5c-3.6,0-6.3,0.9-7.7,1.6l1.1,3.5
		c1.3-0.7,3.4-1.3,5.5-1.3c3,0,3.6,1.3,3.6,2.2v0.2c-7,0-11.6,2.1-11.6,6.7c0,2.8,2.4,5.3,6.4,5.3c2.3,0,4.4-0.7,5.7-2.1h0.1
		l0.4,1.7h5.5c-0.2-1-0.3-2.6-0.3-4.2L159.7,482.3L159.7,482.3z M133.6,478.4h-0.2l-0.2-3.2h-5.3c0.1,1.5,0.2,3.2,0.2,5.7l0,11.7
		h6.1v-8.8c0-0.5,0-0.8,0.1-1.2c0.4-1.7,1.9-2.7,4.2-2.7c0.7,0,1.2,0.1,1.7,0.1v-5.1c-0.4-0.1-0.7-0.1-1.3-0.1
		C137,474.8,134.6,475.9,133.6,478.4 M105.5,486.3c0,0.3,0,0.6-0.1,0.9c-0.4,1.1-1.7,2-3.2,2c-1.4,0-2.4-0.7-2.4-2.1
		c0-2.1,2.5-2.7,5.7-2.7V486.3z M111.5,482.3c0-4.1-2.1-7.5-8.7-7.5c-3.6,0-6.3,0.9-7.7,1.6l1.1,3.5c1.3-0.7,3.4-1.3,5.5-1.3
		c3,0,3.6,1.3,3.6,2.2v0.2c-7,0-11.6,2.1-11.6,6.7c0,2.8,2.4,5.3,6.4,5.3c2.4,0,4.4-0.7,5.7-2.1h0.1l0.4,1.7h5.6
		c-0.2-1-0.3-2.6-0.3-4.2L111.5,482.3L111.5,482.3z M104.4,447.2L104.4,447.2c1.5,0,2.3-0.8,2.3-1.9c0-1.1-0.9-1.9-2.3-1.9
		c-1.4,0-2.3,0.8-2.3,1.9C102.2,446.3,103,447.2,104.4,447.2 M282.7,456.5c0,1.6-0.4,2.3-1.7,2.3h-6.3c0.1-0.5,0.1-1.1,0.1-1.7V449
		h-4.2v7.5c0,1.6-0.4,2.3-1.7,2.3h-27.3V449H235c-5.2,0-8,3-8,6.7c0,3.9,2.6,6.4,8.2,6.4h0.6l1.5-3h-2.1c-2.1,0-3.8-1.2-3.8-3.5
		c0-2,1.5-3.5,3.7-3.5h2.2v7v3.1h33.1c1.4,0,2.6-0.5,3.3-1.1c0.2-0.1,0.3-0.3,0.4-0.5v1.6h8.4c1.4,0,2.6-0.5,3.3-1.1
		c0.8-0.8,1.2-2,1.2-3.9V449h-4.2V456.5L282.7,456.5z M238.6,447.2L238.6,447.2c1.4,0,2.3-0.8,2.3-1.9c0-1.1-0.9-1.9-2.3-1.9
		c-1.4,0-2.3,0.8-2.3,1.9C236.3,446.3,237.2,447.2,238.6,447.2 M110.7,455.8c0,2.4-2.9,3.9-6.5,3.9c-3.5,0-6.2-1.5-6.2-3.9V449h-4.2
		v5.9c0,2.5,0.7,4.6,2.6,5.9c1.8,1.2,4.2,2,7.9,2c3.7,0,6.1-0.8,7.9-2c1.9-1.3,2.6-3.4,2.6-5.9V449h-4.2V455.8z M269.7,466
		c0-1.1-0.9-1.9-2.3-1.9c-1.4,0-2.3,0.8-2.3,1.9c0,1,0.9,1.9,2.2,1.9h0C268.8,467.9,269.7,467,269.7,466 M233.5,447.2L233.5,447.2
		c1.4,0,2.3-0.8,2.3-1.9c0-1.1-0.9-1.9-2.3-1.9c-1.4,0-2.3,0.8-2.3,1.9C231.2,446.3,232.1,447.2,233.5,447.2 M262.3,467.9
		c1.4,0,2.3-0.8,2.3-1.9c0-1.1-0.9-1.9-2.3-1.9c-1.4,0-2.3,0.8-2.3,1.9C260,467,260.9,467.9,262.3,467.9L262.3,467.9z M172.3,452.1
		h9.5c2.3,0,3.8,1.5,3.7,3.5c0,1.7-0.9,2.8-2.3,3.3h-10.9V452.1L172.3,452.1z M206.4,462.1c1.4,0,2.6-0.5,3.3-1.1
		c0.1-0.1,0.2-0.2,0.3-0.4v1.5h5.1c1.4,0,2.6-0.5,3.3-1.1c0.8-0.8,1.2-2,1.2-3.9v-13.6h-4.2v13c0,1.6-0.4,2.3-1.7,2.3h-2.9
		c0.1-0.5,0.1-1.1,0.1-1.7v-13.6h-4.2v13c0,1.6-0.4,2.3-1.7,2.3h-15.7c0.5-0.9,0.7-1.9,0.7-3.1c0-3.6-2.8-6.7-8-6.7h-9.7v-5.5H168
		v15.3h-5.4c0.1-0.5,0.1-1.1,0.1-1.7V449h-4.2v7.5c0,1.6-0.4,2.3-1.7,2.3h-23.7V449h-4.3v10.5c0,2.6-0.2,3.6-0.9,4.3
		c-0.5,0.5-0.7,0.8-1.8,0.9v3.2c2.1,0,3.5-0.1,5-1.6c1-1,1.6-2.2,1.9-4.1h25.3c1.4,0,2.6-0.5,3.3-1.1c0.2-0.2,0.4-0.4,0.5-0.7v1.8
		H206.4L206.4,462.1z M341.8,443.5h-4.3v18.6h4.3V443.5z M155.1,467.9c1.4,0,2.3-0.8,2.3-1.9c0-1.1-0.9-1.9-2.3-1.9
		c-1.4,0-2.3,0.8-2.3,1.9C152.8,467,153.7,467.9,155.1,467.9L155.1,467.9L155.1,467.9z M280,467.9c1.4,0,2.3-0.8,2.3-1.9
		c0-1.1-0.9-1.9-2.3-1.9c-1.4,0-2.3,0.8-2.3,1.9C277.7,467,278.6,467.9,280,467.9L280,467.9L280,467.9z M150,467.9
		c1.4,0,2.3-0.8,2.3-1.9c0-1.1-0.9-1.9-2.3-1.9c-1.4,0-2.3,0.8-2.3,1.9C147.7,467,148.6,467.9,150,467.9L150,467.9L150,467.9z
		 M118.8,462.1h4.3v-18.6h-4.3V462.1L118.8,462.1z M295.7,462.1h34.2c1.4,0,2.6-0.5,3.3-1.1c0.8-0.8,1.2-2,1.2-3.9v-13.6h-4.2v13
		c0,1.6-0.4,2.3-1.7,2.3h-19.8c-1.6-0.4-2.7-1.5-2.7-3.5c0-2.1,1.5-3.6,3.7-3.6c1.6,0,2.9,0.8,3.4,2l3.4-2.1c-1.4-1.8-3.8-3-7-3
		c-5.2,0-8,3.1-8,6.8c0,1.3,0.3,2.4,0.8,3.3h-6.5V449h-4.3v10.5c0,2.6-0.2,3.6-0.8,4.3c-0.5,0.5-0.8,0.8-1.9,0.9v3.2
		c2,0,3.6-0.1,5.1-1.6C294.8,465.3,295.5,464,295.7,462.1"/>
</g>
</svg>
