<?xml version="1.0" encoding="utf-8"?>
<!-- Generator: Adobe Illustrator 16.0.0, SVG Export Plug-In . SVG Version: 6.00 Build 0)  -->
<!DOCTYPE svg PUBLIC "-//W3C//DTD SVG 1.1//EN" "http://www.w3.org/Graphics/SVG/1.1/DTD/svg11.dtd">
<svg version="1.1"
	 id="Layer_1" xmlns:rdf="http://www.w3.org/1999/02/22-rdf-syntax-ns#" xmlns:cc="http://creativecommons.org/ns#" xmlns:svg="http://www.w3.org/2000/svg" xmlns:inkscape="http://www.inkscape.org/namespaces/inkscape" xmlns:sodipodi="http://sodipodi.sourceforge.net/DTD/sodipodi-0.dtd" xmlns:dc="http://purl.org/dc/elements/1.1/" sodipodi:docname="AJAX.svg" inkscape:version="0.48.1 "
	 xmlns="http://www.w3.org/2000/svg" xmlns:xlink="http://www.w3.org/1999/xlink" x="0px" y="0px" width="250.333px" height="125px"
	 viewBox="17.466 -13.37 250.333 125" enable-background="new 17.466 -13.37 250.333 125" xml:space="preserve">
<sodipodi:namedview  bordercolor="#666666" inkscape:zoom="8.7486948" pagecolor="#ffffff" fit-margin-left="0" objecttolerance="10" showgrid="false" inkscape:cx="247.11667" inkscape:cy="40.949792" fit-margin-top="0" guidetolerance="10" gridtolerance="10" borderopacity="1" inkscape:current-layer="g3" inkscape:window-maximized="1" inkscape:window-y="-8" inkscape:window-x="-8" fit-margin-bottom="0" fit-margin-right="0" inkscape:pageopacity="0" inkscape:window-height="1004" inkscape:window-width="1280" inkscape:pageshadow="2" id="namedview198">
	</sodipodi:namedview>
<g>
	<title>logo</title>
	<path fill="#003366" d="M166.749,34.948c-3.52,10.661-13.573,18.383-25.399,18.383c-14.75,0-26.749-12-26.749-26.749
		S126.6-0.167,141.35-0.167c4.491,0,8.724,1.118,12.442,3.082l0.958-0.842c-3.981-2.185-8.547-3.431-13.4-3.431
		c-15.405,0-27.94,12.533-27.94,27.94c0,15.406,12.532,27.938,27.94,27.938c12.515,0,23.135-8.271,26.68-19.635L166.749,34.948z"/>
	<path fill="#00B2E2" d="M123.448,35.193c16.131-1.486,32.113-3.958,47.866-7.926c-0.245,1.089-0.487,2.175-0.731,3.264
		C150.431,35.126,136.371,35.548,123.448,35.193"/>
	<path fill="#00B2E2" d="M126.015,33.591c15.106-2.374,30.575-6.133,46.463-11.507c-0.251,1.115-0.499,2.228-0.75,3.344
		C154.108,30.967,139.08,33.44,126.015,33.591"/>
	<path fill="#57C8E7" d="M128.474,31.889c14.817-3.695,29.904-8.867,45.178-15.057c-0.248,1.12-0.501,2.241-0.751,3.363
		C156.721,26.547,141.757,30.73,128.474,31.889"/>
	<path fill="#98DAE9" d="M130.929,29.874c14.939-4.54,29.635-11.37,44.18-19.551c-0.308,1.375-0.615,2.75-0.922,4.125
		C156.767,23.097,142.008,28.636,130.929,29.874"/>
	<path fill="#57C8E7" d="M134.11,27.743c16.778-8.114,30.419-16.521,42.707-25.056c-0.337,1.514-0.678,3.028-1.017,4.543
		C161.866,16.127,147.959,23.495,134.11,27.743"/>
	<path fill="#00B2E2" d="M136.553,25.107c16.498-10.429,30.81-21.039,42.381-31.875c-0.413,1.85-0.829,3.704-1.243,5.552
		C164.003,10.595,149.995,18.73,136.553,25.107"/>
	<path fill="#00B2E2" d="M179.877-13.37c-1.557,0.041-3.112,0.081-4.669,0.121c-5.77,7.054-11.589,13.158-17.438,18.731
		c-6.34,6.039-12.711,11.456-19.086,16.785C152.65,12.843,166.509,2.286,179.877-13.37"/>
	<rect x="54.118" y="104.557" fill="#00B2E2" width="38.025" height="1.001"/>
	<rect x="189.299" y="104.557" fill="#00B2E2" width="38.31" height="1.001"/>
	<path fill="#003366" d="M63.746,76.215L63.746,76.215l-4.49,8.952h8.952L63.746,76.215z M58.404,86.956l-2.301,4.491
		c-0.512,1.054-2.387,0.314-1.876-0.823l8.582-16.909c0.171-0.373,0.568-0.542,0.937-0.542c0.37,0,0.711,0.169,0.91,0.542
		l8.556,16.825c0.739,1.218-1.364,1.93-1.903,0.821l-2.219-4.406L58.404,86.956L58.404,86.956z"/>
	<path fill="#003366" d="M78.415,89.92h12.136c1.335,0,1.364,1.947,0,2.032H76.51c-1.107,0-1.449-0.91-0.822-1.706L88.42,75.119
		H76.909c-1.25,0-1.279-1.858,0-1.946h13.527c1.166,0,1.479,0.915,0.825,1.769L78.415,89.92z"/>
	<path fill="#003366" d="M96.55,90.004h11.226c1.193,0,1.364,1.948,0,1.948H95.808c-0.794,0-1.307-0.589-1.307-1.296V74.443
		c0-0.679,0.513-1.27,1.307-1.27h11.997c1.221,0,1.164,1.889-0.029,1.889H96.55v6.646h10.687c1.136,0,1.193,1.889,0,1.889H96.55
		V90.004z"/>
	<path fill="#003366" d="M114.74,83.398L114.74,83.398h5.743c3.722,0,5.342-1.778,5.285-3.96c-0.029-2.393-1.99-4.312-5.285-4.312
		h-5.743V83.398z M114.74,85.232v5.65c0,1.341-2.074,1.341-2.074,0.029v-16.72c0-0.611,0.425-1.019,1.05-1.019h6.736
		c4.917,0,7.419,2.855,7.419,6.263c0,2.939-1.563,5.067-5.059,5.677l4.606,5.098c1.079,1.108-0.484,2.39-1.421,1.398l-5.741-6.378
		L114.74,85.232L114.74,85.232z"/>
	<path fill="#003366" d="M133.444,90.035L133.444,90.035h6.368c2.501,0,5.257-0.681,5.257-3.662c0-2.333-1.931-3.335-4.405-3.335
		h-7.22V90.035z M133.444,75.093L133.444,75.093v6.022h5.799c2.444,0,4.575-0.678,4.575-2.834c0-2.54-2.899-3.188-4.659-3.188
		H133.444z M139.812,91.952h-7.392c-0.565,0-1.052-0.471-1.052-1.063V74.234c0-0.589,0.483-1.061,1.052-1.061h6.738
		c2.641,0,6.735,0.916,6.735,5.108c0,1.536-0.711,2.896-2.19,3.513c2.076,0.683,3.499,2.188,3.499,4.579
		C147.202,90.773,143.392,91.952,139.812,91.952z"/>
	<path fill="#003366" d="M158.287,76.215L158.287,76.215l-4.489,8.952h8.953L158.287,76.215z M152.942,86.956l-2.299,4.491
		c-0.512,1.054-2.389,0.314-1.876-0.823l8.584-16.909c0.17-0.373,0.566-0.542,0.937-0.542c0.369,0,0.71,0.169,0.91,0.542
		l8.555,16.825c0.741,1.218-1.363,1.93-1.903,0.821l-2.218-4.406L152.942,86.956L152.942,86.956z"/>
	<path fill="#003366" d="M170.482,74.211c0-1.402,2.13-1.374,2.13,0v16.772c0,1.29-2.13,1.346-2.13,0V74.211z"/>
	<path fill="#003366" d="M186.653,75.084h-5.457c-1.42,0-1.42-1.911,0-1.911h6.396c0.512,0,0.968,0.436,1.023,0.958V85.23
		c0.03,3.909-3.581,6.75-7.331,6.75c-3.611,0-6.539-2.608-6.737-6.084c-0.085-1.334,1.99-1.595,2.104-0.03
		c0.17,2.638,2.243,4.175,4.634,4.175c2.756,0,5.369-2.059,5.369-4.811V75.084L186.653,75.084z"/>
	<path fill="#003366" d="M199.928,76.215L199.928,76.215l-4.489,8.952h8.951L199.928,76.215z M194.583,86.956l-2.302,4.491
		c-0.509,1.054-2.386,0.314-1.873-0.823l8.582-16.909c0.17-0.373,0.567-0.542,0.938-0.542s0.71,0.169,0.91,0.542l8.556,16.825
		c0.74,1.218-1.365,1.93-1.904,0.821l-2.217-4.406L194.583,86.956L194.583,86.956z"/>
	<path fill="#003366" d="M225.141,74.175c0-1.205,2.161-1.263,2.161,0V90.64c0,1.436-1.962,1.575-2.559,0.57l-10.628-14.369
		l0.226,3.961v10.122c0,1.406-2.161,1.438-2.161,0V74.491c0-1.436,1.591-1.664,2.302-0.601l10.943,14.77l-0.285-4.332
		L225.141,74.175L225.141,74.175z"/>
	<path fill="#003366" d="M105.01,99.407L105.01,99.407l-3.106,6.261h6.194L105.01,99.407z M101.313,106.92l-1.593,3.14
		c-0.354,0.738-1.651,0.221-1.297-0.575l5.938-11.825c0.118-0.26,0.394-0.382,0.65-0.382c0.257,0,0.493,0.122,0.63,0.382
		l5.92,11.767c0.513,0.855-0.944,1.353-1.317,0.575l-1.535-3.081H101.313z"/>
	<path fill="#003366" d="M113.446,98.009c0-0.984,1.474-0.965,1.474,0v11.761c0,0.905-1.474,0.945-1.474,0V98.009z"/>
	<path fill="#003366" d="M119.344,104.429L119.344,104.429h3.973c2.578,0,3.698-1.241,3.659-2.769
		c-0.02-1.674-1.377-3.017-3.659-3.017h-3.973V104.429L119.344,104.429z M119.344,105.712v3.952c0,0.937-1.436,0.937-1.436,0.02
		V97.991c0-0.43,0.296-0.714,0.729-0.714h4.66c3.402,0,5.136,1.996,5.136,4.383c0,2.055-1.085,3.542-3.503,3.972l3.187,3.563
		c0.747,0.774-0.332,1.67-0.983,0.979l-3.974-4.462H119.344z"/>
	<path fill="#003366" d="M131.576,110.414c-0.531,0-0.747-0.262-0.747-0.753V97.986c0-0.96,1.455-0.96,1.455,0v11.087h7.355
		c1.004,0,1.004,1.342,0,1.342H131.576z"/>
	<path fill="#003366" d="M142.018,98.009c0-0.984,1.475-0.965,1.475,0v11.761c0,0.905-1.475,0.945-1.475,0V98.009z"/>
	<path fill="#003366" d="M155.35,97.928c0-0.848,1.495-0.889,1.495,0v11.564c0,1.005-1.355,1.104-1.771,0.402l-7.354-10.099
		l0.155,2.781v7.113c0,0.987-1.495,1.009-1.495,0V98.145c0-1.006,1.103-1.167,1.596-0.423l7.57,10.379l-0.197-3.044L155.35,97.928
		L155.35,97.928z"/>
	<path fill="#003366" d="M161.486,109.05h7.769c0.826,0,0.943,1.364,0,1.364h-8.28c-0.551,0-0.903-0.413-0.903-0.908V98.15
		c0-0.475,0.353-0.89,0.903-0.89h8.299c0.846,0,0.808,1.322-0.019,1.322h-7.769v4.655h7.393c0.788,0,0.827,1.325,0,1.325h-7.393
		V109.05z"/>
	<path fill="#003366" d="M173.027,106.995c0.512,1.64,2.695,1.997,4.268,1.997c1.673,0,4.268-0.515,4.268-2.511
		c0-1.719-2.063-1.86-4.229-2.039c-2.714-0.216-5.624-0.472-5.624-3.418c0-2.611,2.991-3.774,5.388-3.774
		c2.065,0,4.643,0.494,5.47,2.746c0.294,0.792-1.043,1.149-1.337,0.476c-0.592-1.503-2.696-1.759-4.113-1.759
		c-1.316,0-3.872,0.534-3.872,2.332c0,1.721,1.966,1.898,4.247,2.077c2.694,0.234,5.586,0.376,5.586,3.342
		c0,3.025-3.364,3.952-5.783,3.952c-2.004,0-5.073-0.69-5.721-3.063C171.336,106.482,172.87,106.186,173.027,106.995"/>
</g>
</svg>
