<?xml version="1.0" encoding="utf-8"?>
<!-- Generator: Adobe Illustrator 20.1.0, SVG Export Plug-In . SVG Version: 6.00 Build 0)  -->
<svg version="1.1"
	 id="svg3112" xmlns:cc="http://creativecommons.org/ns#" xmlns:dc="http://purl.org/dc/elements/1.1/" xmlns:rdf="http://www.w3.org/1999/02/22-rdf-syntax-ns#" xmlns:svg="http://www.w3.org/2000/svg"
	 xmlns="http://www.w3.org/2000/svg" xmlns:xlink="http://www.w3.org/1999/xlink" x="0px" y="0px" viewBox="0 0 248.1 125.8"
	 style="enable-background:new 0 0 248.1 125.8;" xml:space="preserve">
<style type="text/css">
	.st0{fill-rule:evenodd;clip-rule:evenodd;fill:#F7323F;}
	.st1{fill-rule:evenodd;clip-rule:evenodd;fill:#002D73;}
</style>
<path class="st0" d="M13,13.9c6.8,0.2,12,3.3,13.6,10.3C29.3,36.8,11.5,55,5.2,68.2c-5.3,11.1-5,20.7,1.3,31.4
	c6.1,10.4,19.1,18.1,31.4,17c9.7-0.8,15.4-5.4,21.9-12.1c-12.1,4.2-19.1,2.8-23.7-4.1c8.4,3.6,14.4,1.6,14.4,1.6s-5.9-1.5-11-6.1
	c-1.8-1.7-3.2-3.6-4.3-5.4c-7.9-0.9-15.4,0.9-19.7,8.7l-0.6,1.1l-0.8-1c-4-5.2-5-10.4-4.1-15.3c0.9-4.9,3.8-9.5,7.6-13.7
	c0.8-0.9,1.4-1.5,1.9-2.2c3-3.3,6.7-7.4,10.9-12.8c0.2-0.2,0.3-0.4,0.5-0.6c-0.1-11,7.9-26.6,1.9-37.5c1.6,0.9,5.8-0.4,6.3-2.3
	c-3.7-0.5-6.4-1.2-6.6-2.1c-0.2-1.3-10.1-3.7-12.5-1.4C20,11.5,14.6,10.2,13,13.9"/>
<path class="st0" d="M43.1,17.2c0.3,7-0.5,14.1-2.3,20.7c-1.9,6.8-4.9,13.1-9,18.4c-4.3,5.5-8,9.5-11,12.9c-0.8,0.9-1.5,1.7-1.9,2.1
	c-3.6,4-6.3,8.4-7.2,12.9c-0.8,4.2,0,8.5,3.1,13c11.1-17.6,37.8-4,48.3,1.6c1.9-2.8,3.8-5.8,5.1-9.2c1.3-3.4,2-7.1,1.8-11.4
	c-3.3,0.5-7.6,0.5-11.9,0.2c-5-0.4-9.9-1.2-12.5-2.2l-3.8-1.4l4-0.2c5.3-0.2,11.5-1.5,16.5-4.3c2.6-1.5,4.8-3.4,6.3-5.9
	c1.5-2.4,2.4-5.4,2.2-9c-0.2-3.8-1.4-8.3-4.2-13.6c-1.1,5.1-4.1,10.1-7.9,14C54,60.7,48,64.1,42.8,64.5l-3,0.2l2.5-1.7
	C48.5,58.7,54,52.9,57,46.6c1.5-3.2,2.3-6.4,2.2-9.7c-0.1-3.2-1.1-6.4-3.2-9.5C53.4,23.7,49.2,20.3,43.1,17.2"/>
<path class="st1" d="M246.7,96.3c0-6.7-10.2-6-10.2-7.3c0-0.7,0.9-1.1,2-1.1c2.3,0,5.1,1.3,5.1,1.3l2.4-4.5c0,0-2.9-1.5-7.7-1.5
	c-4.7,0-8.3,2.6-8.3,5.7c0,6.5,10.2,5.6,10.2,7.4c0,0.8-0.9,1.1-2.4,1.1c-2.9,0-5.6-1.9-5.6-1.9l-2.4,4.8c0,0,3.2,2.2,8.1,2.2
	C243.8,102.4,246.7,99.4,246.7,96.3 M212.5,102c-0.7,1.8-1.3,2.7-2.1,2.7c-1.3,0-2.9-0.6-2.9-0.6l-1.2,5.2c0,0,2.2,0.8,4.2,0.8
	c4.2,0,6.6-1.9,8.8-7.1l8.3-19.5h-7.4L215.7,95l-2.6-7.8c-0.9-2.6-2.6-4.2-6.8-4.2l-2.1,4.9c2,0.2,2.6,1.5,3.1,2.9l4.2,11.2H212.5z
	 M192.9,96.2c0,0-1.5,1-3.1,1c-1.1,0-1.9-0.6-1.9-1.6c0-1,1.1-1.7,2.6-1.7c1.3,0,2.4,0.2,2.4,0.2V96.2z M202.1,97.2
	c-1.7-0.1-2.2-1-2.2-1.8v-5.4c0-4.5-3.3-6.8-8.7-6.8c-4.5,0-8,2-8,2l2.4,4.4c0,0,2.4-1.3,4.7-1.3c1.5,0,2.6,0.6,2.6,2.3
	c-0.8-0.1-1.7-0.2-2.7-0.2c-4.2,0-8.6,1.2-8.6,6c0,3.4,2.9,6.1,7.5,6.1c3.4,0,5.5-1.8,5.5-1.8s1.7,1.8,6,1.8L202.1,97.2z
	 M156.1,102.4c2.4,0,4.6-0.7,6.3-2c1.6,1.3,3.8,2,6.2,2c5.3,0,9.7-3.4,9.7-10c0-4.1-0.8-8.1-5.5-10l-3.6,4.5
	c1.7,0.9,2.3,2.7,2.3,5.8c0,3.6-1.7,4.4-3.1,4.4c-1.4,0-2.5-0.9-2.5-3V83.5h-6.8V94c0,2.1-1.3,3-2.9,3c-1.4,0-2.6-1.1-2.6-2.9V83.5
	h-6.9v10.3C146.8,99.8,151.3,102.4,156.1,102.4z M144.9,84.9c0,0-1.7-1.8-4.8-1.8c-2.3,0-4.3,1.5-4.3,1.5l-0.2-1.2h-6.5V102h6.9
	v-9.5c0-2.2,1-4.1,3.3-4.1c1.5,0,3.1,0.9,3.1,0.9L144.9,84.9z M122.7,83.5h-7v13c0,4.1,3.4,6,7.7,6l1.6-5.2
	c-1.6-0.1-2.2-0.8-2.2-1.7V83.5z M123.2,75.4c-2.9-0.2-5.5-1.3-7.2-2.8l-1.6,5.5c0,0,2.9,2.9,8.8,3.4V75.4z M102.2,97.6l1.7,4.4h8.9
	l-11-26.7h-7.4l-11,26.7h8.2l1.6-4.4H102.2z M100.2,92.2h-4.9l2.4-7.7L100.2,92.2z"/>
<path class="st0" d="M194.8,57.2c0,0-1.9,1.4-4.2,1.4c-1.5,0-2.5-0.8-2.5-2.1c0-1.4,1.4-2.2,3.5-2.2c1.8,0,3.2,0.3,3.2,0.3V57.2z
	 M207,58.6c-2.3-0.1-2.9-1.3-2.9-2.4V49c0-6-4.4-9.1-11.6-9.1c-6,0-10.7,2.6-10.7,2.6l3.2,5.8c0,0,3.3-1.7,6.3-1.7
	c1.9,0,3.5,0.9,3.5,3c-1.1-0.2-2.3-0.3-3.6-0.3c-5.6,0-11.5,1.6-11.5,8c0,4.5,3.9,8.2,10,8.2c4.5,0,7.4-2.4,7.4-2.4s2.3,2.4,8,2.4
	L207,58.6z M176,40.4h-5.7v-8.2l-9.2,4.4v3.8h-3.8v6.9h3.8v9.5c0,4.6,2.7,8.7,10.2,8.7c2,0,4.2-0.4,4.2-0.4l0.8-7
	c0,0-2.4,0.5-3.5,0.5c-2.2,0-2.4-1.6-2.4-3.7v-7.7h5.7V40.4z M143.7,63.1c0,0,2.3,2.4,8,2.4l2-7c-2.3-0.1-2.9-1.3-2.9-2.4V40.4h-9.3
	v16c0,0-1.1,2-3.9,2c-1.9,0-3-1.3-3-3.5V40.4h-9.2v14.3c0,6.9,4.1,10.8,10.5,10.8C140.8,65.5,143.7,63.1,143.7,63.1z M108.6,53.1
	c0,2-1.7,3.3-4.7,3.3h-3.3V50h3.5C107,50,108.6,51.1,108.6,53.1z M107.7,40.6c0,1.5-0.7,2.9-3.9,2.9h-3.2V38h3.8
	C106.3,38,107.7,39,107.7,40.6z M119.3,54.2c0-5.8-4.1-7.8-4.1-7.8s3-2.1,3-6.6c0-6.9-4.5-10.3-14.4-10.3H90.3v35.6h13.5
	C114.3,65.1,119.3,61.3,119.3,54.2z"/>
</svg>
