<?xml version="1.0" encoding="utf-8"?>
<!-- Generator: Adobe Illustrator 20.1.0, SVG Export Plug-In . SVG Version: 6.00 Build 0)  -->
<svg version="1.1" id="svg4537" xmlns:svg="http://www.w3.org/2000/svg"
	 xmlns="http://www.w3.org/2000/svg" xmlns:xlink="http://www.w3.org/1999/xlink" x="0px" y="0px" viewBox="0 0 248.1 125"
	 style="enable-background:new 0 0 248.1 125;" xml:space="preserve">
<style type="text/css">
	.st0{fill:#F79234;}
	.st1{fill:#3270AE;}
</style>
<path id="path3728" class="st0" d="M248.1,52.2c0,0,0-2.1-1.5-3.6c0,0-1.4-1.4-3.5-1.4c0,0-2.1,0-3.6,1.4c0,0-1.5,1.5-1.5,3.6
	c0,0,0,2,1.5,3.6c0,0,1.5,1.4,3.6,1.4c0,0,2.1,0,3.5-1.4C246.6,55.8,248.1,54.2,248.1,52.2"/>
<path id="path3730" class="st0" d="M5.4,39.8v4.6H0v2.6h5.4v27.3H10V46.9h7v-2.6h-7v-4.1c0,0,0-4.4,7.8-4.4l6.2,0.9c0,0,2,1.4,2,5.6
	v32h4.6l-0.1-40.6h-4.6l-3.3-0.4l-4.8-0.4c0,0-4.4,0-7.9,1.6C9.8,34.5,5.4,36.3,5.4,39.8"/>
<path id="path3732" class="st0" d="M60.8,44.3v22.5c0,0,0,5.1-9.4,5.1c0,0-9.1,0-9.1-5.1V44.3h-4.8V67c0,0,0,8,13.2,8l9.9-1.5v10.1
	h4.7V44.3H60.8"/>
<path id="path3734" class="st1" d="M230.3,52.2c0,0-23.3,0-34.6,3.9c0,0-9.6,3.5-9.6,9.4c0,0,0,9.4,14.8,9.4l8.5-1.2l6.5-1.4V56.4
	l6.8-0.5v18.3h8.3l-0.1-13.8c0,0,0-3.1,0.9-5.9l0.9-2.2H230.3z M208,57.5v7.2c0,0,0,3-2.6,4.3c0,0-1.9,1-4.2,1c0,0-7,0-7-4.4
	c0,0,0-3.6,4.2-5.8C198.3,59.8,202,57.8,208,57.5z"/>
<path id="path3736" class="st1" d="M230.9,44.3h-8.1v4.9h8.1V44.3"/>
<path id="path3738" class="st1" d="M215.6,49.5c0,0-1.5-6.2-14.3-6.2l-9.4,1.5l-4.1,1.4v5.7l3.5-1.7c0,0,4.6-1.9,10.1-1.9
	c0,0,4.2,0,5.6,1.9L215.6,49.5"/>
<path id="path3742" class="st1" d="M149.6,34.5v37.9l6.5,1.4l9.1,1.4c0,0,8.8,0,12.6-3.7c0,0,3.9-3.7,3.9-12.1c0,0,0-8.6-3.2-12.1
	c0,0-3.3-3.6-11.7-3.6c0,0-4.4,0-9,1.9v-11H149.6z M165.5,48.8c0,0,4.8,0,6.5,2.6c0,0,1.6,2.2,1.6,7.9c0,0,0,5.9-1.5,8
	c0,0-1.7,2.5-6.9,2.5c0,0-2.8,0-4.8-1.2c0,0-2.2-1.4-2.3-3.7v-11c0,0,0.1-2.3,2.2-3.7C160.3,50.1,162.3,48.8,165.5,48.8z"/>
<path id="path3746" class="st1" d="M134.7,44.3v20.7c0,0,0,5.1-6.9,5.1c0,0-6.9,0-6.9-5.1V44.3h-8.1V67c0,0,0,8,14.2,8l9.4-1.2
	l5.6-1.4l1-0.1v-28H134.7"/>
<path id="path3748" class="st1" d="M97.5,34.5v11c0,0-4.7-1.9-9.1-1.9c0,0-8.4,0-11.7,3.6c0,0-3.2,3.5-3.2,12.1c0,0,0,8.4,3.9,12.1
	c0,0,4.1,3.7,12.6,3.7l9.1-1.4l6.7-1.4V34.5H97.5z M89.7,48.8c0,0,3.2,0,5.2,1.4c0,0,2.1,1.4,2.3,3.7v11c0,0-0.2,2.3-2.5,3.7
	c0,0-2,1.2-4.8,1.2c0,0-5.2,0-6.9-2.5c0,0-1.5-2.1-1.5-8c0,0,0-5.7,1.6-7.9C83.2,51.4,84.9,48.8,89.7,48.8z"/>
</svg>
