<?xml version="1.0" encoding="utf-8"?>
<!-- Generator: Adobe Illustrator 20.1.0, SVG Export Plug-In . SVG Version: 6.00 Build 0)  -->
<svg version="1.1"
	 id="svg3112" xmlns:cc="http://creativecommons.org/ns#" xmlns:dc="http://purl.org/dc/elements/1.1/" xmlns:rdf="http://www.w3.org/1999/02/22-rdf-syntax-ns#" xmlns:svg="http://www.w3.org/2000/svg"
	 xmlns="http://www.w3.org/2000/svg" xmlns:xlink="http://www.w3.org/1999/xlink" x="0px" y="0px" viewBox="0 0 248.1 125.8"
	 style="enable-background:new 0 0 248.1 125.8;" xml:space="preserve">
<style type="text/css">
	.st0{fill:#FC851D;}
	.st1{fill:none;}
	.st2{fill:#00007D;}
</style>
<g>
	<path class="st0" d="M31.4,23.8h0.2c1.7,3.3,3.5,6.5,5.2,9.8c3.2,0.1,7.3-0.2,9.4,3.1c2.9,5.1,0.9,11.2,0.6,16.8
		c5.7-2.3,10.6-6.2,16.2-8.7C58.4,54.4,52.7,63.4,47.9,73c5.1,3.5,10.3,6.7,15.2,10.5c-10.6,0.4-21.2,0-31.8,0.2
		c-0.1,6.1,0.2,12.2-0.2,18.3c-4.9-7.7-9.2-15.9-13.7-23.8c10.2-6.1,19.5-14.6,25.2-25.8c2.2-4.2,3-9.4,0.9-13.8
		c-0.8-2.1-3.1-1.9-4.8-2.2c1.1,2.8,2.8,5.4,3.1,8.5c0,4.6-2.7,8.5-5.3,11.9C26.6,69.1,13.2,76.7,0,83.8c4.8-10,10.7-19.3,15.1-29.5
		c-4-4.3-9.2-6.8-13.7-10.3c10-0.4,20.1-0.1,30.1-0.1C31.7,37.2,31.8,30.5,31.4,23.8L31.4,23.8z"/>
	<polygon class="st1" points="175.4,66.8 183.8,66.8 181.9,54.4 	"/>
	<path class="st1" d="M147.9,52h-6.4l-1.1,8.2h6.2c1.7,0,3-0.3,3.8-1c0.9-0.7,1.4-1.8,1.6-3.3c0.2-1.3-0.1-2.3-0.8-3
		C150.6,52.4,149.5,52,147.9,52z"/>
	<path class="st1" d="M235.3,52h-6.4l-1.1,8.2h6.2c1.7,0,3-0.3,3.8-1c0.9-0.7,1.4-1.8,1.6-3.3c0.2-1.3-0.1-2.3-0.8-3
		C238,52.4,236.9,52,235.3,52z"/>
	<polygon class="st2" points="77.6,80.9 87.4,80.9 93,44.8 83.2,44.8 	"/>
	<path class="st2" d="M113.3,43.6c-4.4,0-8,1-10.9,3.1c-2.9,2.1-4.6,4.9-5.1,8.4c-0.3,2.3,0.1,4.3,1.1,6c1.1,1.7,2.9,3.1,5.3,4.2
		c1.7,0.7,3.8,1.5,6.3,2.3c2.5,0.8,4,1.4,4.7,1.7c0.4,0.2,0.7,0.6,0.9,1c0.2,0.5,0.2,1,0.1,1.6c-0.2,1.1-0.8,2-1.9,2.7
		c-1.1,0.6-2.6,0.9-4.5,0.9c-2.2,0-3.8-0.5-4.8-1.6c-1-1.1-1.4-2.6-1.1-4.7h-8.8c-0.4,4.4,0.5,7.8,2.6,9.9c2.1,2.2,5.5,3.3,10.2,3.3
		c4.9,0,8.9-1,12-3.1c3-2,4.8-4.9,5.3-8.5c0.2-1.6,0.1-3-0.3-4.4c-0.4-1.3-1.1-2.4-2.1-3.4c-1-0.9-3.7-2.2-8-3.7l-0.3-0.1
		c-0.4-0.1-1-0.3-1.7-0.6c-4.2-1.4-6.2-3-5.9-4.6c0.1-1,0.7-1.8,1.7-2.4c1-0.6,2.3-0.9,3.7-0.9c1.9,0,3.2,0.4,4.1,1.2
		c0.9,0.8,1.3,2.1,1.2,3.8h8.7c0.5-3.7-0.3-6.6-2.5-8.8C120.9,44.7,117.6,43.6,113.3,43.6z"/>
	<polygon class="st2" points="199.7,80.9 209.4,80.9 215.1,44.8 205.3,44.8 	"/>
	<path class="st2" d="M158.5,60.1c1-1.4,1.7-3.2,1.9-5.2c0.5-3.4-0.2-6-1.9-7.6c-1.7-1.6-4.7-2.5-8.8-2.5h-15.6l-4.8,36.2h8.3
		l1.8-13.5h5.6c1.4,0,2.5,0.3,3.1,1c0.6,0.7,0.9,1.7,0.9,3.1c0,0.6-0.1,2-0.4,4.2c-0.2,2.2-0.2,4,0,5.3h8.7l0.2-1.2
		c-0.7-0.5-1-2.1-0.7-5.1c0.1-1.2,0.2-2.2,0.3-3c0.3-2.6,0.2-4.4-0.3-5.5c-0.5-1-1.4-1.9-2.7-2.5C156,62.7,157.5,61.5,158.5,60.1z
		 M152.1,56c-0.2,1.5-0.7,2.6-1.6,3.3c-0.9,0.7-2.2,1-3.8,1h-6.2l1.1-8.2h6.4c1.6,0,2.7,0.3,3.4,1C152,53.6,152.2,54.6,152.1,56z"/>
	<path class="st2" d="M246,47.2c-1.7-1.6-4.7-2.5-8.8-2.5h-15.6l-4.8,36.2h8.3l1.8-13.5h5.6c1.4,0,2.5,0.3,3.1,1
		c0.6,0.7,0.9,1.7,0.9,3.1c0,0.6-0.1,2-0.4,4.2c-0.2,2.2-0.2,4,0,5.3h8.7l0.2-1.2c-0.7-0.5-1-2.1-0.7-5.1c0.1-1.2,0.2-2.2,0.3-3
		c0.3-2.6,0.2-4.4-0.3-5.5c-0.5-1-1.4-1.9-2.7-2.5c1.9-1,3.3-2.2,4.4-3.6c1-1.4,1.7-3.2,1.9-5.2C248.3,51.4,247.7,48.9,246,47.2z
		 M239.5,56c-0.2,1.5-0.7,2.6-1.6,3.3c-0.9,0.7-2.2,1-3.8,1h-6.2l1.1-8.2h6.4c1.6,0,2.7,0.3,3.4,1C239.4,53.6,239.7,54.6,239.5,56z"
		/>
	<path class="st2" d="M178.8,44.8l-20.6,36.2h10.1l3.4-6.6h12.7l1.1,6.6h10.5l-6.5-36.2H178.8z M175.4,66.8l6.5-12.5l1.9,12.5H175.4
		z"/>
</g>
</svg>
