<?xml version="1.0" encoding="utf-8"?>
<!-- Generator: Adobe Illustrator 20.1.0, SVG Export Plug-In . SVG Version: 6.00 Build 0)  -->
<svg version="1.1"
	 id="svg3112" xmlns:cc="http://creativecommons.org/ns#" xmlns:dc="http://purl.org/dc/elements/1.1/" xmlns:rdf="http://www.w3.org/1999/02/22-rdf-syntax-ns#" xmlns:svg="http://www.w3.org/2000/svg"
	 xmlns="http://www.w3.org/2000/svg" xmlns:xlink="http://www.w3.org/1999/xlink" x="0px" y="0px" viewBox="0 0 248.1 125.8"
	 style="enable-background:new 0 0 248.1 125.8;" xml:space="preserve">
<style type="text/css">
	.st0{fill:#747679;}
	.st1{fill:#BED600;}
	.st2{fill:#FFFFFF;}
</style>
<g>
	<g>
		<path class="st0" d="M125.9,44.7h6.5v5.9h-6.5V44.7z M125.9,53.9h6.5v24.7h-6.5V53.9z"/>
		<path class="st0" d="M142.4,57.9h0.1c1.5-2.8,3.2-4.2,6.1-4.2c0.7,0,1.2,0,1.5,0.2v5.7H150c-4.3-0.4-7.4,1.8-7.4,7v12h-6.5V53.9
			h6.3V57.9z"/>
		<path class="st0" d="M162.9,44.7h6.5v5.9h-6.5V44.7z M162.9,53.9h6.5v24.7h-6.5V53.9z"/>
		<path class="st0" d="M179.5,57.3h0.1c1.7-2.6,3.9-4,7.3-4c5.1,0,8.5,3.8,8.5,9.2v16.1h-6.5V63.5c0-2.6-1.5-4.5-4.3-4.5
			c-2.9,0-5,2.3-5,5.7v14h-6.5V53.9h6.4L179.5,57.3L179.5,57.3z"/>
		<path class="st0" d="M198.1,66.3c0-7.3,5-13,12.2-13c7.9,0,12.2,6.1,12.2,14.9h-17.9c0.5,3.8,2.6,6.2,6.3,6.2c2.5,0,4-1.2,4.8-3
			h6.4c-0.9,4.4-4.8,8.1-11.2,8.1C202.7,79.3,198.1,73.6,198.1,66.3z M204.6,63.6h11c-0.2-3.1-2.3-5.3-5.2-5.3
			C206.9,58.3,205.2,60.4,204.6,63.6z"/>
		<path class="st0" d="M223.9,70.6h6.1c0.4,2.8,2.5,4.1,5.4,4.1c2.9,0,4.5-1.1,4.5-2.8c0-2.4-3.1-2.6-6.5-3.3
			c-4.4-0.9-8.8-2.1-8.8-7.5c0-5.3,4.4-7.9,10-7.9c6.5,0,10.1,3.2,10.6,8.2h-5.9c-0.3-2.6-2-3.6-4.8-3.6c-2.5,0-4.2,1-4.2,2.7
			c0,2.1,3.3,2.3,6.8,3c4.1,0.9,8.7,2,8.7,7.8c0,5-4.2,7.9-10.4,7.9C228.3,79.3,224.3,75.9,223.9,70.6z"/>
		<path class="st0" d="M110.5,44.7h-7.6L89.1,78.6h7.8l2.5-7h14l2.6,7h7.8L110.5,44.7z M101.3,65.9l5-14.4l5.2,14.4L101.3,65.9
			L101.3,65.9z"/>
		<rect x="152.7" y="44.7" class="st0" width="6.5" height="33.9"/>
	</g>
	<g>
		<path class="st1" d="M80.6,65c0,21.6-17.5,39-39,39c-21.6,0-39-17.5-39-39c0-21.6,17.5-39,39-39C63.1,26,80.6,43.5,80.6,65"/>
		<path class="st2" d="M38.7,44.7c-6.1,0-10.1,0.3-13,1.4c-4.9,1.9-8.2,5.9-8.2,11.1c0,4.3,2,7.5,7.9,11.1c6.2,3.8,7.5,5,7.5,7.3
			c0,2.5-2.4,5.3-8.7,5.3c-2.2,0-5.5-0.3-7.6-0.8l-1-0.3c-0.6,1.5-1.8,5.1-2.2,6.4l1,0.3c1.9,0.6,6.4,1.1,9.6,1.1
			c10.7,0,17.1-6.5,17.1-13.3c0-4.2-1.9-7.3-8.3-11.3c-3.2-2-4.9-3.3-5.8-4.3c-0.8-1-0.9-1.8-0.9-2.6c0-0.8,0.2-1.7,0.7-2.3
			c0.6-0.8,1.6-1.3,2.9-1.8c1.4-0.5,4-0.5,8.1-0.5h3.8l2.7-6.8L38.7,44.7L38.7,44.7z M67.5,44.7H48.4l-2.7,6.8H52
			c4.3,0,5.1-0.1,6.1-0.1c-1.5,3.5-10.9,27.2-10.9,27.2h7.9c0,0,11.8-29.5,13-32.6C68.5,45.3,68.4,44.7,67.5,44.7z"/>
	</g>
</g>
</svg>
