<?xml version="1.0" encoding="utf-8"?>
<!-- Generator: Adobe Illustrator 20.1.0, SVG Export Plug-In . SVG Version: 6.00 Build 0)  -->
<svg version="1.1"
	 id="Layer_1" inkscape:version="0.48.1 " sodipodi:docname="AJAX.svg" xmlns:cc="http://creativecommons.org/ns#" xmlns:dc="http://purl.org/dc/elements/1.1/" xmlns:inkscape="http://www.inkscape.org/namespaces/inkscape" xmlns:rdf="http://www.w3.org/1999/02/22-rdf-syntax-ns#" xmlns:sodipodi="http://sodipodi.sourceforge.net/DTD/sodipodi-0.dtd" xmlns:svg="http://www.w3.org/2000/svg"
	 xmlns="http://www.w3.org/2000/svg" xmlns:xlink="http://www.w3.org/1999/xlink" x="0px" y="0px" viewBox="0 0 250.3 125"
	 style="enable-background:new 0 0 250.3 125;" xml:space="preserve">
<style type="text/css">
	.st0{fill:#233F8C;}
	.st1{clip-path:url(#SVGID_2_);fill:#233F8C;}
	.st2{clip-path:url(#SVGID_4_);}
</style>
<path class="st0" d="M49.6,36.5c0,0.1-5.8,13.9-8.3,19.6C39,61.2,36.7,66.5,34,71.6c-3.2,6.2-8,9.1-13.1,9.1
	c-6.5,0-10.9-4.1-10.9-10.5c0-2.7,0.7-5.3,2.6-10.2c1.2-3.1,2.4-5.8,3.7-8.9c2-4.9,4.1-9.7,6.1-14.5h-9.4c-2.9,6.8-5.5,13-8.4,19.8
	C2.4,61.7,1.2,66.6,1.2,71c0,10.7,7.9,18.6,19.2,18.6c7,0,13.6-2.5,18.1-8.3c2.4-3.1,3.7-5.4,7.4-13.7c4.4-9.9,9.2-21.1,13.3-31.1
	L49.6,36.5L49.6,36.5z"/>
<g>
	<g>
		<defs>
			<rect id="SVGID_1_" x="105.3" y="37" width="143.9" height="53.1"/>
		</defs>
		<clipPath id="SVGID_2_">
			<use xlink:href="#SVGID_1_"  style="overflow:visible;"/>
		</clipPath>
		<path class="st1" d="M156,40.3v10.2h-5.3v6.2h5.3v21.6c0,7.7,3,10.7,10.7,10.7h2.9v-6.6H169c-3.4,0-4.6-1.3-4.6-4.7V56.7h6.2v-6.2
			h-6.2V40.3H156z M126.4,82.1c-8,0-12-4.8-12-15.5V37h-9.1v29.2c0,16.9,7.4,23.9,21.1,23.9c13.7,0,21.1-6.9,21.1-23.9V37h-9.1v29.6
			C138.4,77.3,134.4,82.1,126.4,82.1 M197.8,70.6v2.2c0,6.4-4.4,10.7-10.6,10.7c-3.3,0-6-2-6-5.3c0-3.2,2.3-5.6,7-6.2L197.8,70.6z
			 M185.2,90c6.1,0,11-2.1,13.2-6.1v5h8V66.5c0-14.9-8-17.6-16.3-17.6c-10.7,0-15.8,5.9-16.4,13.4h9c0.6-4.4,3.4-6.9,7.5-6.9
			c4.4,0,7.7,2.3,7.7,9.4L186.2,66c-11.7,1.2-14.5,7.3-14.5,12.2C171.7,85.7,177.7,90,185.2,90 M221.6,37h-8.7v8.7h8.7V37z
			 M221.6,50.5h-8.7V89h8.7V50.5z M249.2,49.9c-0.3-0.1-1.1-0.4-2-0.4c-5.7,0-9,3.4-11,7.5v-6.6H228V89h8.5V68.2
			c0-6.4,3.2-9.5,9.7-9.5h3L249.2,49.9L249.2,49.9z"/>
	</g>
	<g>
		<defs>
			<rect id="SVGID_3_" x="-1" y="36.4" width="252" height="53.7"/>
		</defs>
		<clipPath id="SVGID_4_">
			<use xlink:href="#SVGID_3_"  style="overflow:visible;"/>
		</clipPath>
		<g class="st2">
		</g>
	</g>
</g>
</svg>
