<?xml version="1.0" encoding="utf-8"?>
<!-- Generator: Adobe Illustrator 16.0.0, SVG Export Plug-In . SVG Version: 6.00 Build 0)  -->
<!DOCTYPE svg PUBLIC "-//W3C//DTD SVG 1.1//EN" "http://www.w3.org/Graphics/SVG/1.1/DTD/svg11.dtd">
<svg version="1.1"
	 id="Layer_1" xmlns:rdf="http://www.w3.org/1999/02/22-rdf-syntax-ns#" xmlns:cc="http://creativecommons.org/ns#" xmlns:svg="http://www.w3.org/2000/svg" xmlns:inkscape="http://www.inkscape.org/namespaces/inkscape" xmlns:sodipodi="http://sodipodi.sourceforge.net/DTD/sodipodi-0.dtd" xmlns:dc="http://purl.org/dc/elements/1.1/" sodipodi:docname="AJAX.svg" inkscape:version="0.48.1 "
	 xmlns="http://www.w3.org/2000/svg" xmlns:xlink="http://www.w3.org/1999/xlink" x="0px" y="0px" width="250.333px" height="125px"
	 viewBox="17.466 -13.37 250.333 125" enable-background="new 17.466 -13.37 250.333 125" xml:space="preserve">
<sodipodi:namedview  bordercolor="#666666" inkscape:zoom="8.7486948" pagecolor="#ffffff" fit-margin-left="0" objecttolerance="10" showgrid="false" inkscape:cx="247.11667" inkscape:cy="40.949792" fit-margin-top="0" guidetolerance="10" gridtolerance="10" borderopacity="1" inkscape:current-layer="g3" inkscape:window-maximized="1" inkscape:window-y="-8" inkscape:window-x="-8" fit-margin-bottom="0" fit-margin-right="0" inkscape:pageopacity="0" inkscape:window-height="1004" inkscape:window-width="1280" inkscape:pageshadow="2" id="namedview198">
	</sodipodi:namedview>
<g>
	
		<sodipodi:namedview  bordercolor="#666666" inkscape:zoom="1.0540707" pagecolor="#ffffff" objecttolerance="10.0" inkscape:cx="233.85899" inkscape:cy="178.83051" guidetolerance="10.0" gridtolerance="10.0" borderopacity="1.0" inkscape:current-layer="Ebene_1" inkscape:window-y="84" inkscape:window-x="66" inkscape:pageopacity="0.0" inkscape:window-height="575" inkscape:window-width="825" inkscape:pageshadow="2" id="base">
		</sodipodi:namedview>
	<path id="path3" fill="#9D451A" d="M145.05,58.91c9.646,0,18.714-3.757,25.535-10.576c6.821-6.82,10.577-15.89,10.577-25.535
		c0-9.645-3.756-18.713-10.577-25.535c-6.821-6.82-15.89-10.576-25.535-10.576c-19.911,0-36.111,16.199-36.111,36.111
		c0,9.646,3.756,18.714,10.577,25.535C126.336,55.155,135.405,58.91,145.05,58.91L145.05,58.91z"/>
	<path id="path5" fill="#F2E500" stroke="#F2E50E" stroke-width="0.95" d="M110.589,22.799c0-9.205,3.585-17.858,10.094-24.368
		c6.509-6.509,15.163-10.093,24.367-10.093c9.205,0,17.858,3.584,24.368,10.093c6.509,6.51,10.092,15.164,10.092,24.368
		c0,19.002-15.457,34.462-34.46,34.462c-9.204,0-17.858-3.585-24.367-10.094S110.589,32.004,110.589,22.799L110.589,22.799z"/>
	<path id="path7" fill="#57B8A1" d="M162.966,6.362h-17.469c-1.36,0-3.025,0.967-3.701,2.148l-7.665,13.429l1.987,3.179l2.171-3.802
		c0,0,1.336-3.13,5.312-3.13c3.979,0,12.82,0,12.82,0c1.362,0,3.027-0.967,3.702-2.149l6.464-11.324
		C166.588,4.713,164.326,6.362,162.966,6.362L162.966,6.362z"/>
	<path id="path9" fill="#57B8A1" d="M141.55,35.354c1.523,0,19.031,0,19.031,0c1.361,0,3.026-0.983,3.7-2.166l8.549-15.002
		c0,0-2.264,1.649-3.624,1.649h-22.519c-1.36,0-3.026,0.966-3.703,2.148c0,0-6.521,11.317-7.479,12.997
		c-0.957,1.681-2.9,2.14-3.659,2.135c-3.043-0.021-5.979-1.876-5.979-5.486c0-5.464,8.387-3.82,8.387-3.82l-4.398-7.012
		c0,0-9.486,0.264-9.486,10.586c0,10.447,10.66,11.548,10.66,11.548h36.726l3.374-5.91c0,0-29.093,0-30.526,0
		C139.578,37.02,139.336,35.354,141.55,35.354L141.55,35.354z"/>
	<path id="path11" d="M60.99,79.015l1.779-8.999h6.236l-1.818,9.197c-0.15,0.759-0.119,1.337,0.091,1.737
		c0.21,0.402,0.598,0.602,1.162,0.602c0.281,0,0.528-0.045,0.739-0.134c0.729-0.311,1.208-1.046,1.438-2.205l1.817-9.197h6.237
		l-1.778,8.999c-0.174,0.873-0.434,1.669-0.783,2.382c-0.645,1.307-1.54,2.347-2.688,3.118c-1.556,1.039-3.514,1.559-5.875,1.559
		c-2.361,0-4.107-0.513-5.242-1.536c-0.869-0.788-1.361-1.826-1.477-3.119C60.76,80.706,60.814,79.904,60.99,79.015L60.99,79.015z"
		/>
	<polygon id="polygon13" points="93.072,85.606 77.808,85.606 78.705,81.069 88.49,74.537 81.072,74.537 81.966,70.016 
		96.776,70.016 95.802,74.47 86.235,81.083 93.965,81.083 	"/>
	<path id="path15" d="M105.212,73.758c0.43,0,0.749,0.096,0.955,0.289c0.207,0.192,0.277,0.461,0.21,0.802
		c-0.074,0.371-0.244,0.646-0.508,0.824c-0.267,0.178-0.629,0.267-1.089,0.267h-0.578l0.431-2.182H105.212L105.212,73.758z
		 M109.704,84.158c0.894-0.771,1.457-1.737,1.686-2.896c0.213-1.083,0.038-1.997-0.528-2.738c-0.506-0.669-1.215-1.1-2.127-1.293
		c0.816-0.222,1.543-0.63,2.18-1.224c0.637-0.595,1.03-1.271,1.18-2.027c0.249-1.263,0.008-2.239-0.724-2.93
		c-0.732-0.688-1.877-1.034-3.437-1.034h-8.797l-3.081,15.591h9.221C107.116,85.606,108.592,85.124,109.704,84.158L109.704,84.158z
		 M104.249,79.527c0.431,0,0.747,0.051,0.949,0.154c0.352,0.179,0.479,0.513,0.382,1.003c-0.097,0.491-0.365,0.831-0.803,1.024
		c-0.245,0.104-0.573,0.155-0.99,0.155h-0.757l0.462-2.337H104.249L104.249,79.527z"/>
	<polygon id="polygon17" points="124.584,85.606 113.671,85.606 116.752,70.016 127.665,70.016 126.772,74.537 122.094,74.537 
		121.835,75.851 126.044,75.851 125.305,79.592 121.095,79.592 120.8,81.083 125.477,81.083 	"/>
	<polygon id="polygon19" points="134.272,85.606 128.034,85.606 131.117,70.016 137.352,70.016 136.243,75.628 140.805,70.016 
		147.642,70.016 140.88,77.41 144.716,85.606 137.545,85.606 135.442,79.681 	"/>
	<polygon id="polygon21" points="152.9,85.606 146.664,85.606 149.744,70.016 155.981,70.016 	"/>
	<path id="path23" d="M170.916,71.107l-2.482,3.431c-0.532-0.313-0.964-0.536-1.293-0.67c-0.455-0.178-0.92-0.267-1.395-0.267
		c-0.446,0-0.813,0.071-1.101,0.211c-0.287,0.142-0.464,0.376-0.528,0.702c-0.075,0.386,0.098,0.676,0.52,0.868
		c0.082,0.03,0.555,0.164,1.412,0.401c1.38,0.386,2.357,0.884,2.936,1.493c0.723,0.771,0.951,1.833,0.685,3.184
		c-0.358,1.812-1.336,3.223-2.93,4.231c-1.444,0.921-3.161,1.381-5.15,1.381c-0.936,0-1.813-0.141-2.634-0.424
		c-1.169-0.4-2.301-1.097-3.395-2.093l3.048-3.475c0.601,0.564,1.134,0.981,1.602,1.248c0.626,0.356,1.274,0.534,1.943,0.534
		c0.519,0,0.903-0.104,1.152-0.312c0.178-0.148,0.29-0.341,0.338-0.579c0.078-0.4-0.082-0.72-0.48-0.957
		c-0.187-0.104-0.626-0.252-1.314-0.446c-1.293-0.371-2.212-0.787-2.761-1.247c-0.939-0.802-1.269-1.915-0.987-3.341
		c0.314-1.589,1.126-2.881,2.436-3.875c1.38-1.039,3.055-1.559,5.032-1.559c0.993,0,1.965,0.134,2.913,0.399
		C169.432,70.216,170.243,70.602,170.916,71.107L170.916,71.107z"/>
	<polygon id="polygon25" points="180.052,85.606 173.816,85.606 176.002,74.537 172.317,74.537 173.21,70.016 186.819,70.016 
		185.925,74.537 182.239,74.537 	"/>
	<path id="path27" d="M194.875,79.437h-2.16l1.876-3.964L194.875,79.437L194.875,79.437z M191.076,83.334h3.897l0.175,2.273h6.393
		l-2.442-15.591h-6.86l-8.627,15.591h6.392L191.076,83.334L191.076,83.334z"/>
	<polygon id="polygon29" points="209.821,85.606 203.897,85.606 206.978,70.016 212.835,70.016 215.507,77.343 216.955,70.016 
		222.88,70.016 219.799,85.606 214.031,85.606 211.301,78.122 	"/>
	<path id="path31" d="M152.062,93.05h-3.606l-7.949,13.9h4.02l1.326-2.486h4.366l0.364,2.486h3.957L152.062,93.05L152.062,93.05z
		 M149.894,101.588h-2.578l2.051-3.782L149.894,101.588L149.894,101.588z"/>
	<polygon id="polygon33" points="160.303,96.695 156.788,96.695 154.762,106.95 158.276,106.95 	"/>
	<polygon id="polygon35" points="160.454,95.926 161.023,93.05 157.508,93.05 156.941,95.926 	"/>
	<path id="path37" d="M168.669,96.332c-0.881,0-1.666,0.175-2.333,0.519c-0.33,0.169-0.634,0.382-0.914,0.636l0.156-0.792h-3.514
		l-2.027,10.256h3.515l0.829-4.195c0.267-1.354,0.687-2.355,1.246-2.976c0.542-0.602,1.278-0.9,2.249-0.912
		c0.365,0,1.007,0.019,1.007,0.019l0.505-2.554H168.669L168.669,96.332z"/>
	<polygon id="polygon39" points="185.825,96.695 181.948,96.695 179.515,102.009 179.233,96.695 175.969,96.695 173.585,102.011 
		173.254,96.695 169.443,96.695 170.768,106.95 174.235,106.95 176.647,101.672 176.972,106.95 180.448,106.95 	"/>
	<path id="path41" d="M191.06,96.332c-1.405,0-2.609,0.299-3.581,0.889c-0.997,0.606-1.65,1.555-1.941,2.823l-0.087,0.379h3.4
		l0.044-0.257c0.074-0.427,0.252-0.737,0.549-0.949c0.305-0.22,0.715-0.331,1.215-0.331c0.406,0,0.698,0.083,0.843,0.241
		c0.144,0.157,0.195,0.381,0.154,0.68c0.004-0.019-0.028,0.144-0.028,0.144l-0.021,0.104c-0.04,0.155-0.101,0.275-0.178,0.347
		c-0.119,0.054-0.626,0.194-2.741,0.508c-1.449,0.212-2.48,0.574-3.151,1.106c-0.679,0.538-1.106,1.26-1.267,2.142
		c-0.192,0.969-0.014,1.75,0.529,2.318c0.53,0.554,1.398,0.834,2.581,0.834c0.736-0.013,1.43-0.141,2.067-0.379
		c0.449-0.169,0.849-0.389,1.2-0.652l0.043,0.672h3.58l0.144-0.729l-0.31-0.055c-0.051-0.01-0.103-0.02-0.128-0.153
		c-0.016-0.082-0.032-0.378,0.166-1.298c0.001-0.002,0.928-4.403,0.928-4.403c0.268-1.29,0.068-2.29-0.592-2.974
		C193.823,96.661,192.705,96.332,191.06,96.332L191.06,96.332z M191.133,102.545l-0.01,0.05c-0.143,0.718-0.433,1.245-0.89,1.613
		c-0.459,0.368-0.914,0.548-1.39,0.548c-0.348,0-0.622-0.072-0.814-0.214c-0.1-0.075-0.207-0.202-0.14-0.537
		c0.05-0.306,0.194-0.534,0.44-0.707c0.276-0.193,0.702-0.338,1.269-0.432c0.992-0.155,1.237-0.215,1.34-0.25
		C190.988,102.6,191.056,102.574,191.133,102.545L191.133,102.545z"/>
	<path id="path43" d="M207.74,96.695h-3.783l-2.623,5.551l-0.882-5.551h-4.13l2.378,9.798l-0.179,0.374
		c-0.228,0.457-0.453,0.776-0.67,0.941c-0.199,0.155-0.435,0.23-0.723,0.23c-0.194,0-0.355-0.012-0.478-0.033
		c-0.123-0.022-0.231-0.051-0.321-0.082l-0.338-0.121l-0.515,2.604l0.32,0.048c0.249,0.04,0.555,0.078,0.909,0.118
		c0.364,0.038,0.745,0.058,1.133,0.058c0.854,0,1.612-0.216,2.251-0.639c0.64-0.426,1.308-1.307,2.045-2.693L207.74,96.695
		L207.74,96.695z"/>
	<path id="path45" d="M215.781,97.23c-0.66-0.604-1.722-0.897-3.244-0.897c-1.52,0-2.743,0.281-3.639,0.834
		c-0.922,0.569-1.491,1.369-1.689,2.375c-0.189,0.957-0.037,1.722,0.455,2.269c0.479,0.534,1.34,0.886,2.629,1.076
		c1.564,0.245,1.955,0.457,2.05,0.538c0.168,0.142,0.221,0.313,0.173,0.557c-0.044,0.226-0.187,0.401-0.432,0.54
		c-0.278,0.157-0.61,0.235-0.985,0.235c-0.529,0-0.912-0.094-1.137-0.279c-0.071-0.06-0.289-0.239-0.203-0.827l0.052-0.354h-3.578
		l-0.045,0.256c-0.197,1.149,0.112,2.079,0.926,2.766c0.78,0.659,1.961,0.992,3.508,0.992c1.638,0,2.926-0.306,3.834-0.916
		c0.928-0.619,1.509-1.499,1.729-2.614c0.168-0.849,0.03-1.558-0.405-2.112c-0.433-0.549-1.428-0.939-3.044-1.195
		c-1.339-0.193-1.673-0.379-1.755-0.45c-0.087-0.075-0.194-0.214-0.129-0.549c0.02-0.106,0.081-0.263,0.368-0.397
		c0.264-0.125,0.643-0.188,1.124-0.188c0.565,0,0.772,0.122,0.846,0.195c0.122,0.122,0.173,0.302,0.15,0.55l-0.029,0.337h3.224
		l0.038-0.266C216.719,98.676,216.453,97.845,215.781,97.23L215.781,97.23z"/>
</g>
</svg>
