<?xml version="1.0" encoding="utf-8"?>
<!-- Generator: Adobe Illustrator 20.1.0, SVG Export Plug-In . SVG Version: 6.00 Build 0)  -->
<svg version="1.1"
	 id="svg3112" xmlns:cc="http://creativecommons.org/ns#" xmlns:dc="http://purl.org/dc/elements/1.1/" xmlns:rdf="http://www.w3.org/1999/02/22-rdf-syntax-ns#" xmlns:svg="http://www.w3.org/2000/svg"
	 xmlns="http://www.w3.org/2000/svg" xmlns:xlink="http://www.w3.org/1999/xlink" x="0px" y="0px" viewBox="0 0 248.1 125.8"
	 style="enable-background:new 0 0 248.1 125.8;" xml:space="preserve">
<style type="text/css">
	.st0{fill:#462E84;}
	.st1{fill:#FFFFFF;}
</style>
<g>
	<g>
		<path class="st0" d="M108.8,57.6h-2.6c-0.5,2.7-1.2,5.5-2,8.1h0l-2.2-8.1h-2.7l-2.1,8.1h0c-0.8-2.6-1.5-5.3-2-8.1h-2.8
			c0.8,3.6,1.9,7.4,3.1,10.9h3.1l2-7.4h0l2.1,7.4h3C106.9,64.8,108,61.2,108.8,57.6L108.8,57.6z"/>
		<path class="st0" d="M126.3,59.7v-2H124l0-3.1h0l0,0c-1,0.1-1.8,0.2-2.7,0.3v2h0l0,8.8c0,2.3,1.2,3,3,3c0.8,0,1.6-0.1,2.1-0.3
			v-1.9h-0.9c-1.1,0-1.5-0.3-1.5-1.7v-5.1L126.3,59.7L126.3,59.7z"/>
		<path class="st0" d="M167.9,57.7h-2.7c-0.5,2.8-1.4,5.9-2.3,8.4h0c-1-2.7-1.8-5.5-2.5-8.4h-2.9c1,4,2.5,8.2,3.9,11.3
			c-0.9,1.9-1.5,2.4-2.3,2.4h-1.3l-0.1,2.1c0.4,0.1,0.9,0.3,1.5,0.3c1.9,0,3.4-1,5.2-4.8C165.4,66.4,166.6,62.8,167.9,57.7"/>
		<path class="st0" d="M116.4,63.7l0,2.7c0,0.2,0.1,0.2,0.2,0.3c0,0-0.9,0.2-2.3,0.2c-1.4,0-1.9-0.5-1.9-1.6c0-1.1,0.8-1.6,2.7-1.6
			H116.4L116.4,63.7z M119,61.1c0-2.4-1.3-3.8-4.5-3.8c-1.4,0-2.9,0.3-4,0.7l0.5,2c0.9-0.4,2.1-0.6,3.2-0.6c1.7,0,2.2,0.7,2.2,2v0.6
			h-1.3c-3.4,0-5.4,1-5.4,3.5c0,2.3,1.7,3.3,5,3.3c0.8,0,3.4-0.1,4.3-0.7V61.1L119,61.1z"/>
		<path class="st0" d="M134.5,63.7l0,2.7c0,0.2,0.1,0.2,0.2,0.3c0,0-0.9,0.2-2.3,0.2c-1.4,0-1.9-0.5-1.9-1.6c0-1.1,0.8-1.6,2.7-1.6
			H134.5L134.5,63.7z M137.1,61.1c0-2.4-1.3-3.8-4.5-3.8c-1.4,0-2.9,0.3-4,0.7l0.5,2c0.9-0.4,2.1-0.6,3.2-0.6c1.7,0,2.3,0.7,2.3,2
			v0.6h-1.3c-3.4,0-5.4,1-5.4,3.5c0,2.3,1.7,3.3,5,3.3c0.8,0,3.4-0.1,4.3-0.7L137.1,61.1L137.1,61.1z"/>
		<path class="st0" d="M175.1,63.7l0,2.7c0,0.2,0.1,0.2,0.2,0.3c0,0-0.9,0.2-2.3,0.2c-1.4,0-1.9-0.5-1.9-1.6c0-1.1,0.8-1.6,2.7-1.6
			H175.1L175.1,63.7z M177.8,61.1c0-2.4-1.3-3.8-4.5-3.8c-1.4,0-2.9,0.3-4,0.7l0.5,2c0.9-0.4,2.1-0.6,3.2-0.6c1.7,0,2.3,0.7,2.3,2
			v0.6h-1.3c-3.4,0-5.4,1-5.4,3.5c0,2.3,1.7,3.3,5,3.3c0.8,0,3.4-0.1,4.3-0.7L177.8,61.1L177.8,61.1z"/>
		<path class="st0" d="M145.5,57.3c-1.5,0-2.5,0.5-3.6,1.7l-0.3-1.4l0,0c-0.3,0-0.5,0-0.8,0c-0.5,0-0.9,0.1-1.3,0.1v10.6h2.7v-1.7h0
			l0,0V61c0.9-1,1.6-1.5,2.7-1.5c1.3,0,1.8,1,1.8,2.6v6.3h2.7v-6.8C149.3,59,148.2,57.3,145.5,57.3L145.5,57.3z"/>
		<path class="st0" d="M152.8,59.7c-0.2,0-0.5,0-0.9-0.1l-0.9-0.1v-1.7c0.7-0.1,1.4-0.2,2.2-0.3c0.8-0.1,1.5-0.1,2.3,0v10.8h-2.7
			L152.8,59.7L152.8,59.7z"/>
		<path class="st0" d="M155.7,54.4c0-1-0.7-1.6-1.6-1.6c-1,0-1.6,0.6-1.6,1.6c0,1,0.7,1.6,1.6,1.6C155,56,155.7,55.3,155.7,54.4"/>
		<path class="st0" d="M204.4,57.7c-1.1,0-1.7,0.6-3,2.1l0-0.1v0c0.1-0.1,0.1-0.3,0.1-0.3l0-1.5c0,0-0.8,0.1-1.2,0.1v10.3h1.4l0-7.1
			c0,0,0,0,0-0.1c1.8-2.1,1.8-2.5,2.8-2.4c0.3,0,0.8,0.1,1.1,0.2l0.3-1C205.3,57.8,204.9,57.8,204.4,57.7L204.4,57.7z"/>
		<path class="st0" d="M240.5,58h-1.3c-0.8,3.2-1.9,6.5-3,9.4h0c-1.2-3.1-2.4-6-3.3-9.4h-1.5c1.1,3.8,2.8,7.8,4.1,10.9
			c-1.4,2.8-2.2,3.5-3,3.5h-1.1l-0.1,1c0.4,0.1,0.8,0.2,1.2,0.2c1.5,0,2.5-1.1,4.2-4.8C237.9,66.5,239.1,63,240.5,58"/>
		<path class="st0" d="M198.2,54.5c0-0.6-0.5-1-1-1c-0.6,0-1,0.5-1,1c0,0.6,0.5,1,1,1C197.7,55.6,198.2,55.1,198.2,54.5"/>
		<path class="st0" d="M221.6,58h-1.3c-0.7,3-1.7,6.2-2.7,9.1h0l-2.8-9.1h-1.4l-2.7,9.1h0c-1-2.9-1.9-6-2.6-9.1h-1.4
			c0.9,3.4,2,6.9,3.3,10.5h1.5l2.6-8.8h0l2.7,8.8h1.3C219.4,64.9,220.6,61.4,221.6,58"/>
		<path class="st0" d="M248.1,65.5c0-1.7-1.2-2.3-2.7-2.9c-1.6-0.6-2.3-1-2.3-2c0-0.8,0.6-1.8,2-1.8c0.7,0,1.5,0.1,2.2,0.4l0.2-1.1
			c-0.7-0.2-1.5-0.4-2.2-0.4c-2.3,0-3.6,1.2-3.6,3.1c0,1.6,1.1,2.3,2.8,2.9c1.5,0.6,2.3,1,2.3,2c0,1.3-1,1.9-2.3,1.9
			c-0.9,0-1.9-0.2-2.7-0.5l-0.2,1.2c0.8,0.3,1.8,0.4,2.7,0.4C246.5,68.6,248.1,67.5,248.1,65.5"/>
		<path class="st0" d="M196.6,58c0.3,0,0.3,0,1.3,0v10.5h-1.3l0-9.3c-0.2,0-0.4-0.1-0.7-0.1l-0.7-0.1v-0.9
			C195.6,58.1,196.1,58,196.6,58"/>
		<path class="st0" d="M194,68.1l0-6.9c0-1.7-0.8-3.5-3.7-3.5c-1.3,0-2.6,0.3-3.6,0.6l0.3,1.1c0.9-0.4,2-0.6,3-0.6
			c2,0,2.7,0.9,2.7,2.8v0.8h-2.2c-2.6,0-4.5,1-4.5,3.2c0,2.1,1.7,3,4.5,3C191.4,68.6,193.2,68.6,194,68.1L194,68.1z M190.3,67.6
			c-2.1,0-3-0.7-3-2.1c0-1.3,1-2,3.1-2h2.1v3.7c0,0.1,0,0.2,0.1,0.2C192.8,67.4,192.2,67.6,190.3,67.6L190.3,67.6z"/>
		<path class="st0" d="M230.2,68.1l0-6.9c0-1.7-0.8-3.5-3.7-3.5c-1.3,0-2.6,0.3-3.6,0.6l0.3,1.1c0.9-0.4,2-0.6,3-0.6
			c2,0,2.7,0.9,2.7,2.8v0.8h-2.2c-2.6,0-4.5,1-4.5,3.2c0,2.1,1.7,3,4.5,3C227.7,68.6,229.5,68.6,230.2,68.1L230.2,68.1z M226.6,67.6
			c-2.1,0-3-0.7-3-2.1c0-1.3,1-2,3.1-2h2.1v3.7c0,0.1,0,0.2,0.1,0.2C229.1,67.4,228.5,67.6,226.6,67.6L226.6,67.6z"/>
	</g>
	<g>
		<path class="st0" d="M135.2,48V40c-0.6,0-1,0.1-1.5,0.2V48H135.2L135.2,48z"/>
		<path class="st0" d="M178,48V40c-0.3,0-0.6,0-0.8,0.1v8H178L178,48z"/>
		<path class="st0" d="M132,40c-0.6,0-1,0.1-1.5,0.2v6.8l-4,0v-4c-0.3-0.1-0.6-0.1-1-0.1c-0.3,0-0.7-0.1-1-0.1c-0.5,0-1,0.1-1.3,0.2
			c-0.4,0.2-0.7,0.4-0.9,0.6c-0.2,0.3-0.4,0.6-0.6,0.9c-0.1,0.3-0.2,0.7-0.2,1.1c0,0.7,0.2,1.2,0.5,1.6h0l0,0
			c0.1,0.1,0.1,0.1,0.2,0.2c0.5,0.4,1.2,0.7,2.1,0.7h0.7c0,0.5-0.2,0.9-0.5,1.2c-0.3,0.3-0.9,0.5-1.5,0.5c-0.3,0-0.7,0-1.5-0.2l0,1
			c0.3,0.2,1,0.3,1.4,0.3c0.7,0,1.2-0.1,1.6-0.2c0.5-0.2,0.8-0.4,1.1-0.6c0.3-0.3,0.5-0.6,0.6-0.9c0.1-0.3,0.2-0.6,0.2-1l5.5,0
			L132,40L132,40z M125.2,46.8c0,0-1.2,0.3-1.8-0.4l0,0c-0.1-0.1-0.1-0.2-0.2-0.2l0,0c0-0.1-0.1-0.1-0.1-0.2c0,0,0-0.1,0-0.1
			c0-0.2,0-0.3,0-0.5c0-0.4,0.1-0.8,0.3-1.1c0.2-0.3,0.5-0.4,0.9-0.4c0.1,0,0.2,0,0.3,0c0.1,0,0.2,0,0.4,0.1l0,2.6
			C125.1,46.7,125.2,46.7,125.2,46.8L125.2,46.8L125.2,46.8z"/>
		<path class="st0" d="M119.5,43.4c-0.4-0.4-1-0.6-1.7-0.6c-0.4,0-0.8,0.1-1.1,0.2c-0.3,0.2-0.7,0.4-0.9,0.6
			c-0.3,0.2-0.6,0.5-0.7,0.8c-0.2,0.3-0.4,0.5-0.5,0.8h0c0.1-0.3,0.1-0.5,0.1-0.8c0-0.3,0.1-0.6,0.1-0.9l0-3.4c-0.6,0-1,0.1-1.5,0.2
			v6.7h-4v-4c-0.6,0-1,0.1-1.5,0.2l0,3.8h-4v-4c-0.6,0-1,0.1-1.5,0.2v3.8l-4.5,0v-4c-0.3,0-0.6-0.1-1-0.1c-0.3,0-0.7-0.1-1-0.1
			c-0.5,0-1,0.1-1.3,0.2c-0.4,0.2-0.7,0.4-0.9,0.6c-0.2,0.3-0.4,0.5-0.6,0.9c-0.1,0.3-0.2,0.7-0.2,1.1c0,0.8,0.2,1.4,0.7,1.8
			c0.5,0.4,1.2,0.7,2.1,0.7h24.7v-2.8C120.2,44.4,120,43.8,119.5,43.4L119.5,43.4z M96.3,46.8c0,0-1.2,0.3-1.8-0.4l0,0
			c-0.1-0.1-0.1-0.2-0.2-0.2l0,0c0-0.1-0.1-0.1-0.1-0.2c0,0,0-0.1,0-0.1c0-0.2,0-0.3,0-0.5c0-0.4,0.1-0.8,0.3-1.1
			c0.2-0.3,0.5-0.4,0.9-0.4c0.1,0,0.2,0,0.3,0c0.1,0,0.2,0,0.4,0.1l0,2.6C96.2,46.7,96.2,46.7,96.3,46.8L96.3,46.8L96.3,46.8z
			 M118.7,46.9l-4,0c0.2-0.4,0.3-0.7,0.5-1.1c0.2-0.3,0.4-0.7,0.7-1c0.3-0.2,0.5-0.5,0.8-0.6c0.3-0.2,0.6-0.2,0.9-0.2
			c0.4,0,0.6,0.1,0.8,0.3c0.1,0.3,0.2,0.6,0.2,1.2v1.1C118.6,46.7,118.6,46.8,118.7,46.9L118.7,46.9L118.7,46.9z"/>
		<path class="st0" d="M145.1,42.9c-1.5,0-3.1,1.5-3.7,3v-6h0v0c-0.3,0-0.5,0-0.8,0.1l0,7.4h-2.4v0.6h9.1v-2.7
			C147.3,43.9,146.6,42.9,145.1,42.9L145.1,42.9z M146.5,47.4L146.5,47.4L146.5,47.4l-5.1,0c0.6-1.5,1.6-3.9,3.5-3.9
			c1.1,0,1.5,1,1.5,2l0,1.5C146.4,47.2,146.4,47.3,146.5,47.4L146.5,47.4L146.5,47.4z"/>
		<path class="st0" d="M175.7,40c-0.3,0-0.6,0-0.8,0.1v7.4H171v-1.7c0-2.3-2.2-3-4.3-2.6v0.6c1.8-0.1,3.5,0.1,3.5,2.2v1.5h-6.5v-2
			c0-1.4-0.6-2.5-2.1-2.5c-1.5,0-3.1,1.5-3.7,3l0-6c-0.3,0-0.5,0-0.8,0.1l0,7.4h-4V43l-0.2,0c-0.5-0.1-1-0.1-1.6-0.1
			c-1.8,0-2.6,1.3-2.6,2.6c0,1.2,0.8,2.4,2.3,2.6c0,0,0.2,0,0.3,0h1c0.2,1.6-1,2.2-2.5,2.2c-0.4,0-0.6-0.1-1.2-0.3l0,0.7
			c0.4,0.1,1,0.2,1.4,0.2c1.8,0,3.1-0.9,3-2.8h22.5L175.7,40L175.7,40z M152.5,47.4c0,0-0.3,0.1-1.1,0.1c-0.5,0-1.1-0.2-1.4-0.6
			c-0.3-0.3-0.5-0.9-0.5-1.4c0-1,0.6-2,1.8-2c0.5,0,0.9,0,1,0.1l0.1,0v3.6C152.3,47.2,152.4,47.3,152.5,47.4L152.5,47.4L152.5,47.4z
			 M163,47.4l-5.1,0c0.6-1.5,1.6-3.9,3.5-3.9c1.1,0,1.5,1,1.5,2V47C162.9,47.2,162.9,47.3,163,47.4L163,47.4L163,47.4z"/>
		<path class="st0" d="M102.7,49.9c0-0.5-0.4-0.8-0.9-0.8s-0.9,0.3-0.9,0.8c0,0.5,0.4,0.8,0.9,0.8C102.4,50.8,102.7,50.4,102.7,49.9
			"/>
		<path class="st0" d="M95.3,41.2c0-0.5-0.4-0.8-0.9-0.8c-0.5,0-0.9,0.3-0.9,0.8c0,0.5,0.4,0.8,0.9,0.8S95.3,41.7,95.3,41.2"/>
		<path class="st0" d="M104.7,49.9c0-0.5-0.4-0.8-0.9-0.8c-0.5,0-0.9,0.3-0.9,0.8c0,0.5,0.4,0.8,0.9,0.8
			C104.4,50.8,104.7,50.4,104.7,49.9"/>
		<path class="st0" d="M97.3,41.2c0-0.5-0.4-0.8-0.8-0.8s-0.9,0.3-0.9,0.8c0,0.5,0.4,0.8,0.9,0.8C96.9,42,97.3,41.7,97.3,41.2"/>
		<path class="st0" d="M109.2,41.2c0-0.5-0.4-0.8-0.9-0.8c-0.5,0-0.8,0.3-0.8,0.8c0,0.5,0.4,0.8,0.8,0.8
			C108.9,42,109.2,41.7,109.2,41.2"/>
		<path class="st0" d="M168.7,41.1c0-0.4-0.3-0.6-0.6-0.6c-0.4,0-0.6,0.2-0.6,0.6c0,0.4,0.3,0.6,0.6,0.6
			C168.4,41.7,168.7,41.5,168.7,41.1"/>
	</g>
	<path class="st0" d="M71.7,85.8c1.4,0,2.5-1.1,2.5-2.5v-41c0-1.4-1.1-2.5-2.5-2.5H2.5C1.1,40,0,41.1,0,42.4v41
		c0,1.4,1.1,2.5,2.5,2.5"/>
	<g>
		<g>
			<g>
				<path class="st1" d="M32.6,73.8c9-9.2,15.7-12.3,34.6-16.8c-21.3-1.1-36.3,0.5-51.4,6.1C20.4,67.8,26,71.3,32.6,73.8z"/>
			</g>
			<g>
				<path class="st1" d="M31.3,54.6c-9-1.1-15.7-0.9-22.2,0.4c1.5,2.2,3.2,4.3,4.9,6.1C18.7,57.3,22,56,31.3,54.6"/>
			</g>
		</g>
		<path class="st1" d="M32.3,64.1c-5.1,0.4-10.9,0.1-16.5-1c-0.1,0,0.1,0,0,0c4,4.1,9.5,7.9,16.8,10.7c6.6-6.6,12.9-12.2,34.6-16.8
			c-3.3-0.2-5.4-0.2-8.5-0.3C52.2,60.6,48.6,62.9,32.3,64.1z"/>
		<path class="st1" d="M18.4,55.6c-3,0.2-6-0.2-9.3-0.6c1.6,2.4,3,4.1,4.9,6.1c4.6-3.8,7.6-5.1,17.3-6.6c-0.3,0-0.5-0.1-0.8-0.1
			C26.2,55.1,24,55.3,18.4,55.6"/>
	</g>
</g>
</svg>
